<svg width="24" height="26" viewBox="0 0 24 26" fill="none" xmlns="http://www.w3.org/2000/svg">
<path d="M18.4226 14.0203C18.4629 13.886 18.4347 13.541 18.6028 13.4833C18.7373 13.4349 18.6942 13.6779 18.6862 13.7424C18.6608 13.9432 18.6158 14.1411 18.5517 14.3331C18.4172 14.7547 17.921 15.579 18.4952 15.9052C18.6297 15.9791 18.8583 15.9844 18.9309 16.1388C19.0439 16.3791 18.6942 16.4073 18.553 16.359C18.3863 16.2972 18.2491 16.2677 18.1967 16.4933C18.1738 16.5899 18.1967 16.8195 18.0515 16.8316C17.8619 16.8463 17.9587 16.4798 17.8121 16.5523C17.6655 16.6248 17.6696 17.3323 17.4087 17.1712C17.285 17.0947 17.367 16.9309 17.398 16.8302C17.4501 16.6659 17.4884 16.4975 17.5122 16.3268C17.5398 16.0615 17.5479 15.7945 17.5365 15.528C17.5365 15.2783 17.5808 15.0608 17.5943 14.8137C17.6279 14.2418 17.636 13.6685 17.675 13.0966C17.7086 12.5985 17.7785 12.1031 17.8094 11.6051C17.8721 10.8318 17.7704 10.054 17.5109 9.32274C17.2178 8.50379 17.0954 7.65933 16.973 6.80816C16.8808 6.24294 16.7596 5.68281 16.61 5.12998C16.5189 4.77641 16.3446 4.44964 16.1017 4.17678C15.8838 3.93243 15.6014 3.82772 15.3755 3.61022C15.0192 3.26653 14.8592 2.6248 14.3509 2.46638C14.3435 2.46448 14.3356 2.4649 14.3284 2.46756C14.3213 2.47022 14.3151 2.47501 14.3107 2.48129C14.3063 2.48756 14.3039 2.49503 14.3039 2.50268C14.3039 2.51033 14.3062 2.5178 14.3105 2.52411C14.4732 2.74026 14.7381 2.91881 14.7139 3.22491C14.7133 3.23347 14.7095 3.24149 14.7033 3.24743C14.6971 3.25337 14.6889 3.25683 14.6803 3.25714C14.6003 3.25617 14.5218 3.23542 14.4517 3.19672C14.0712 3.02756 13.5978 2.95775 13.1904 2.8772C12.7399 2.78725 11.6117 2.79933 11.5391 2.13477C11.4853 1.64877 11.9896 1.54674 12.358 1.69442C12.3651 1.69717 12.3728 1.69765 12.3802 1.69579C12.3875 1.69393 12.3941 1.68984 12.399 1.68407C12.4039 1.6783 12.4068 1.67115 12.4074 1.66361C12.4081 1.65608 12.4063 1.64854 12.4024 1.64206C12.367 1.59001 12.3429 1.53114 12.3318 1.46923C12.3206 1.40732 12.3225 1.34375 12.3375 1.28264C12.3524 1.22153 12.3801 1.16423 12.4186 1.11444C12.4571 1.06466 12.5056 1.02349 12.5611 0.993609C12.865 0.815051 13.2845 1.04328 13.5669 1.15874C13.575 1.16208 13.584 1.16228 13.5922 1.15929C13.6005 1.15631 13.6073 1.15037 13.6113 1.14263C14.0497 0.425714 14.6871 1.20842 15.0905 1.27689C15.3661 1.32522 15.7897 1.04463 16.1528 1.12384C16.5884 1.21781 16.8655 1.4447 16.9596 1.87969C16.9614 1.88762 16.9658 1.89472 16.9722 1.89983C16.9785 1.90495 16.9864 1.90778 16.9945 1.90788C17.5512 1.92668 18.0784 1.83941 18.2196 2.49726C18.2215 2.50616 18.2267 2.514 18.2342 2.51922C18.2417 2.52445 18.2509 2.52667 18.2599 2.52545C18.9054 2.4449 19.4204 3.41421 18.8368 3.821C18.4629 4.08146 18.2263 3.59009 17.8699 3.70554C17.7825 3.73239 17.6427 3.8398 17.7355 3.93243C17.757 3.95794 17.8121 3.93243 17.8404 3.9472C17.8814 3.96624 17.9178 3.99396 17.947 4.02844C17.9763 4.06293 17.9976 4.10335 18.0097 4.1469C18.0217 4.19046 18.0241 4.2361 18.0167 4.28067C18.0093 4.32524 17.9922 4.36767 17.9668 4.40501C17.8323 4.61981 17.1102 4.61444 17.2944 4.98096C17.4195 4.99573 17.3442 4.80509 17.5001 4.79972C17.8484 4.78898 17.7274 5.38909 17.6521 5.55154C17.5338 5.80796 17.3482 6.0174 17.3079 6.30471C17.2742 6.54234 17.4006 6.78802 17.4423 7.01894C17.4961 7.32369 17.2917 7.95066 17.6171 8.12922C17.8215 8.24199 18.2451 7.88219 18.3298 7.69155C18.3327 7.68528 18.3374 7.67996 18.3432 7.67624C18.3491 7.67251 18.3558 7.67054 18.3628 7.67054C18.3697 7.67054 18.3765 7.67251 18.3823 7.67624C18.3882 7.67996 18.3928 7.68528 18.3957 7.69155C18.4643 7.8634 18.3392 8.09431 18.1725 8.20172C18.1654 8.20597 18.1599 8.21254 18.157 8.22033C18.1542 8.22812 18.154 8.23666 18.1567 8.24451C18.1594 8.25237 18.1647 8.25908 18.1717 8.2635C18.1788 8.26793 18.1871 8.26982 18.1954 8.26884C18.228 8.26077 18.2622 8.26077 18.2949 8.26884C18.3876 8.30509 18.2478 8.4031 18.2007 8.42189C18.1429 8.44577 18.0803 8.45588 18.0179 8.45143C18.0098 8.45182 18.002 8.4548 17.9958 8.45992C17.9896 8.46504 17.9851 8.47203 17.9832 8.47986C17.9812 8.48769 17.9818 8.49594 17.9849 8.50339C17.988 8.51084 17.9934 8.5171 18.0004 8.52124C18.1348 8.58434 18.2949 8.60314 18.385 8.74813C18.432 8.82466 18.4455 8.97771 18.51 9.04752C18.5133 9.05077 18.5159 9.05463 18.5177 9.0589C18.5195 9.06316 18.5204 9.06773 18.5204 9.07236C18.5204 9.07698 18.5195 9.08155 18.5177 9.08582C18.5159 9.09008 18.5133 9.09395 18.51 9.09719C18.4011 9.18714 18.2182 9.05557 18.1362 8.97905C18.0017 8.84479 17.8672 8.89178 17.8511 9.08377C17.8468 9.26095 17.9001 9.43476 18.0031 9.57916C18.0932 9.65972 18.1617 9.60333 18.2209 9.53218C18.2254 9.52654 18.2315 9.52236 18.2383 9.52017C18.2452 9.51799 18.2526 9.5179 18.2595 9.51992C18.2664 9.52194 18.2726 9.52597 18.2772 9.5315C18.2818 9.53703 18.2847 9.54381 18.2854 9.55097C18.3298 10.0155 18.5692 10.429 18.5261 10.9123C18.4939 11.2788 18.3406 11.6239 18.276 11.9863C18.2276 12.2549 18.3258 12.514 18.3661 12.7798C18.4049 13.0303 18.3999 13.2855 18.3513 13.5343C18.3325 13.639 18.3137 13.7437 18.2908 13.8484C18.276 13.9223 18.2249 14.0619 18.2733 14.1304C18.3325 14.2499 18.4078 14.0713 18.4226 14.0203Z" fill="#1F515B"/>
<path d="M21.2867 21.1836C21.3305 21.2131 21.3642 21.2552 21.3835 21.3044C21.405 21.4051 21.2853 21.4494 21.249 21.5246C21.2272 21.5849 21.2234 21.6504 21.2382 21.7128C21.253 21.7753 21.2858 21.8321 21.3324 21.8763C21.4059 21.9533 21.4971 22.0114 21.598 22.0456C21.6989 22.0797 21.8067 22.0889 21.9119 22.0723C22.0007 22.0723 22.1809 22.0495 22.2105 22.1636C22.2401 22.2777 22.0652 22.2737 21.9899 22.2616C21.9967 22.2777 22.037 22.3073 22.0357 22.3234C22.0343 22.3395 21.9819 22.3677 21.963 22.3757C21.8743 22.4187 21.8407 22.3757 21.7533 22.361C21.7533 22.3755 21.758 22.3896 21.7667 22.4012C21.7755 22.4129 21.7877 22.4213 21.8017 22.4254C21.7197 22.5274 21.518 22.4455 21.448 22.3717C21.448 22.4026 21.4776 22.416 21.448 22.4375C21.4184 22.459 21.3835 22.4375 21.3687 22.4241C21.3677 22.4411 21.3677 22.4581 21.3687 22.4751C21.3781 22.4952 21.3942 22.4992 21.4104 22.5113C21.4482 22.5353 21.4878 22.5563 21.5287 22.5744C21.7331 22.6805 21.9563 22.5959 22.1405 22.4858C22.2105 22.4455 22.3476 22.3516 22.3382 22.5073C22.3382 22.5946 22.2185 22.6577 22.1473 22.6805C22.2051 22.663 22.357 22.6375 22.4041 22.6912C22.5036 22.804 22.0854 22.8161 22.033 22.8161C21.9156 22.8242 21.7977 22.8175 21.682 22.7959C21.5239 22.776 21.3727 22.7189 21.2409 22.6295C21.1063 22.525 21.0048 22.3838 20.949 22.223C20.8931 22.0621 20.8852 21.8885 20.9263 21.7233C20.968 21.5326 21.1038 21.3769 21.1347 21.1862C21.1468 21.1124 21.1347 20.9902 21.2046 20.9419C21.1927 21.0078 21.2031 21.0759 21.2342 21.1352C21.2493 21.1537 21.267 21.17 21.2867 21.1836Z" fill="#1F515B"/>
<path d="M11.443 20.8209C11.4739 20.6867 11.1646 20.5524 11.1444 20.4249C11.2381 20.3958 11.3283 20.3567 11.4134 20.3081C11.4203 20.3031 11.4257 20.2965 11.4292 20.2888C11.4328 20.2811 11.4342 20.2726 11.4334 20.2641C11.4325 20.2557 11.4295 20.2476 11.4246 20.2407C11.4197 20.2338 11.413 20.2284 11.4053 20.2248C11.2708 20.1617 11.0019 20.249 10.8674 20.2571C10.6392 20.2845 10.4077 20.2531 10.1951 20.1658C9.96065 20.0674 9.74397 19.9314 9.55366 19.763C9.47836 19.6892 9.40037 19.6287 9.4434 19.52C9.47513 19.4508 9.52907 19.3941 9.59669 19.3589C9.73064 19.2836 9.8792 19.2378 10.0324 19.2246C10.2139 19.2018 10.0781 19.0904 9.9611 19.0649C9.79571 19.0273 9.58459 19.0984 9.41516 19.1011C9.1247 19.1011 9.04806 18.9145 8.87728 18.7145C8.75385 18.5409 8.60202 18.3893 8.42815 18.2661C8.34628 18.2271 8.25698 18.2061 8.16629 18.2044C8.07559 18.2028 7.9856 18.2206 7.90238 18.2567C7.57562 18.4527 7.80959 19.038 7.97903 19.2542C8.07461 19.3437 8.15459 19.4485 8.21569 19.5643C8.2372 19.6719 8.23445 19.7828 8.20762 19.8892C8.19032 20.0179 8.19808 20.1487 8.23048 20.2745C8.25065 20.347 8.29234 20.5726 8.40798 20.543C8.44429 20.4383 8.36764 20.3282 8.40798 20.2128C8.57607 19.7858 8.97544 20.0785 9.24304 20.2128C9.45074 20.3164 9.67284 20.3884 9.90194 20.4262C10.0888 20.4531 10.2919 20.4101 10.4721 20.4705C10.6738 20.5376 10.7935 20.7149 10.975 20.8062C11.0732 20.8558 11.3287 20.9847 11.4201 20.8666C11.4312 20.8534 11.4391 20.8377 11.443 20.8209Z" fill="#1F515B"/>
<path d="M13.4997 18.8613L13.4687 18.9029C13.4577 18.8919 13.4427 18.8858 13.427 18.8858C13.4114 18.8858 13.3964 18.8919 13.3854 18.9029C13.4109 18.9029 13.4284 18.9029 13.4338 18.9312C13.4486 18.9863 13.3786 19.0092 13.3477 19.0374C13.3008 19.0813 13.264 19.1351 13.2401 19.1948C13.2106 19.2741 13.259 19.344 13.3477 19.3171C13.4365 19.2902 13.4822 19.1558 13.4728 19.0616C13.4634 18.9675 13.501 18.8411 13.583 18.8128C13.566 18.812 13.549 18.8162 13.5342 18.8247C13.5194 18.8333 13.5074 18.846 13.4997 18.8613Z" fill="#1F515B"/>
<path d="M13.9646 9.6195C13.9919 9.68915 14.0295 9.75432 14.0762 9.81283C14.169 9.89875 14.1784 9.935 14.0762 10.0142C13.9246 10.1358 13.7323 10.1953 13.5383 10.1807H13.459C13.4668 10.2009 13.4758 10.2206 13.4859 10.2398C13.542 10.3263 13.6208 10.3959 13.7137 10.4409C13.8067 10.4858 13.9102 10.5045 14.013 10.4948C14.0671 10.4991 14.1214 10.4916 14.1723 10.4728C14.2231 10.4541 14.2693 10.4246 14.3077 10.3863C14.346 10.348 14.3756 10.3019 14.3944 10.2511C14.4131 10.2003 14.4207 10.146 14.4164 10.0921C14.4164 10.0746 14.4325 10.0424 14.4406 10.0424C14.452 10.0418 14.4635 10.0437 14.4741 10.0478C14.4848 10.052 14.4945 10.0584 14.5025 10.0666C14.5172 10.0892 14.5281 10.1142 14.5347 10.1404C14.567 10.2344 14.6329 10.2572 14.7136 10.1941C14.7551 10.1621 14.7892 10.1216 14.8135 10.0752C14.8379 10.0289 14.852 9.97786 14.8548 9.9256C14.8548 9.85445 14.8198 9.81954 14.7485 9.82625C14.727 9.82625 14.7042 9.83968 14.6867 9.83431C14.6577 9.82408 14.6298 9.81104 14.6033 9.79538C14.6195 9.77389 14.6316 9.74436 14.6531 9.73496C14.6875 9.71934 14.7177 9.6957 14.7411 9.66603C14.7645 9.63637 14.7804 9.60154 14.7875 9.56446C14.8035 9.48236 14.8012 9.39777 14.7808 9.31666C14.7605 9.23554 14.7225 9.15987 14.6697 9.09497C14.6169 9.03007 14.5505 8.97753 14.4751 8.94104C14.3997 8.90455 14.3173 8.88501 14.2335 8.88379C14.2091 8.8886 14.1853 8.89579 14.1623 8.90527C14.1878 8.93346 14.2053 8.95226 14.2201 8.9724C14.2844 9.05443 14.3305 9.14912 14.3556 9.25023C14.3806 9.35134 14.3839 9.4566 14.3653 9.55909C14.3572 9.61145 14.3277 9.67052 14.2618 9.62622C14.169 9.5564 14.0829 9.58862 13.9646 9.6195Z" fill="#1F515B"/>
<path d="M21.0277 15.927C21.1191 15.8532 21.2307 15.7686 21.2442 15.6746C21.2657 15.5202 21.1097 15.6196 21.064 15.6666C20.9889 15.7449 20.9095 15.8189 20.826 15.8881C20.7493 15.9431 20.6646 15.8626 20.5705 15.9149C20.4965 15.9552 20.5113 16.021 20.4669 16.0734C20.4231 16.112 20.3748 16.1454 20.323 16.1727C20.2585 16.2224 20.1065 16.3419 20.2397 16.4063C20.3324 16.452 20.4118 16.3419 20.479 16.2989C20.4955 16.2873 20.5143 16.2795 20.5342 16.2761C20.6014 16.2761 20.6189 16.3633 20.6444 16.4412C20.7162 16.6951 20.7421 16.9596 20.7211 17.2226C20.7353 17.3795 20.7587 17.5355 20.791 17.6898C20.802 17.8405 20.7948 17.9919 20.7695 18.1409C20.7296 18.3153 20.6802 18.4874 20.6216 18.6564L20.4763 18.549C20.3311 18.4389 20.2074 18.2966 19.9963 18.2993C19.9258 18.3076 19.8579 18.3303 19.7966 18.3661C19.7354 18.4018 19.6822 18.4498 19.6404 18.507C19.5986 18.5642 19.5692 18.6295 19.5538 18.6986C19.5384 18.7677 19.5375 18.8393 19.5512 18.9088C19.56 18.9567 19.56 19.0059 19.5512 19.0538C19.5337 19.2726 19.566 19.3129 19.7717 19.3223C19.7717 19.4391 19.7139 19.4686 19.6063 19.4968C19.3975 19.5495 19.1947 19.6238 19.0012 19.7184C18.9496 19.7483 18.8921 19.7668 18.8326 19.7723C18.7732 19.7779 18.7132 19.7705 18.657 19.7506C18.4512 19.6821 18.2455 19.6163 18.0438 19.5371C17.9093 19.4888 17.7964 19.4029 17.6659 19.372C17.4225 19.3049 17.0541 19.427 16.9842 19.6982C16.9425 19.8607 17.1428 19.8123 17.2329 19.7747C17.3355 19.7177 17.4415 19.6671 17.5503 19.623C17.6445 19.6154 17.7387 19.6379 17.8192 19.6875C18.1016 19.8043 18.3947 19.8969 18.6758 20.0191C18.8477 20.0993 19.0437 20.1118 19.2244 20.054C19.3575 20.0247 19.4922 20.0036 19.6278 19.9909C19.7193 19.9761 19.7825 20.0245 19.7852 20.0996C19.7941 20.2913 19.7896 20.4833 19.7717 20.6742C19.7596 20.7924 19.6736 20.8192 19.5512 20.8085C19.211 20.7736 18.8694 20.7575 18.5279 20.732C18.4804 20.7243 18.4317 20.7335 18.3904 20.758C18.3491 20.7826 18.3178 20.8209 18.302 20.8662C18.2078 21.1428 18.15 21.6718 17.8986 21.8637C17.6928 22.0222 17.3284 21.8718 17.0823 22.0087C16.9774 22.0678 16.765 22.2571 16.9021 22.3752C17.0393 22.4934 17.2276 22.2799 17.3365 22.241C17.6054 22.139 17.8623 22.4115 18.0922 22.2209C18.2818 22.0638 18.3181 21.763 18.4163 21.5496C18.4198 21.5413 18.4238 21.5332 18.4284 21.5254C18.5763 21.2636 18.5776 21.2569 18.8775 21.3066C18.981 21.3214 19.0805 21.3495 19.1814 21.3737C19.2154 21.3855 19.2486 21.3994 19.2809 21.4153C19.2162 21.498 19.1412 21.5719 19.0577 21.6355C18.5844 21.904 18.6825 22.2047 18.8923 22.6236C19.0186 22.876 19.13 23.1355 19.2258 23.4009C19.2486 23.468 19.2466 23.541 19.2202 23.6067C19.1938 23.6725 19.1448 23.7266 19.0819 23.7594C18.9579 23.8401 18.8635 23.9588 18.8129 24.0977C18.7901 24.1743 18.7578 24.4347 18.8681 24.4683C18.938 24.4884 18.973 24.3917 18.9945 24.3434C19.0347 24.2018 19.1167 24.0755 19.2298 23.9809C19.3414 23.9084 19.484 23.8628 19.5458 23.7352C19.5622 23.6865 19.5676 23.6347 19.5615 23.5836C19.5555 23.5326 19.5382 23.4835 19.5108 23.4399C19.4084 23.1775 19.3244 22.9084 19.2594 22.6344C19.231 22.574 19.2261 22.5051 19.2458 22.4414C19.2654 22.3776 19.3081 22.3234 19.3656 22.2893C19.5216 22.2034 19.6843 22.1336 19.8443 22.0557C19.9479 22.0047 20.1294 21.8342 20.237 21.9604C20.3177 22.0544 20.2908 22.2289 20.3109 22.3417C20.3461 22.5589 20.4369 22.7634 20.5745 22.9353C20.7121 23.1073 20.8918 23.2408 21.0962 23.3231C21.5884 23.5003 22.1464 23.3231 22.6225 23.1794C22.8726 23.1056 23.3271 22.9968 23.553 23.1794C23.6143 23.2315 23.6611 23.2986 23.6886 23.3742C23.7162 23.4497 23.7237 23.5311 23.7103 23.6104C23.6659 23.9178 23.4131 24.2024 23.0877 24.185C22.8188 24.1716 22.4934 23.9608 22.7247 23.6842C22.8121 23.5782 23.0178 23.5621 22.9936 23.7218C22.9815 23.7943 22.8833 23.7554 22.9277 23.8722C22.9721 23.989 23.1066 23.938 23.1671 23.8628C23.4494 23.511 22.8672 23.2949 22.5996 23.4265C22.2688 23.5902 22.3159 24.0642 22.5646 24.2682C23.1765 24.7717 23.9981 24.2387 23.9994 23.5124C23.9994 23.0103 23.596 22.735 23.1227 22.7592C22.531 22.7914 22.0389 23.2143 21.4311 23.1741C20.8233 23.1338 20.5086 22.6008 20.4898 22.0571C20.495 21.7491 20.5818 21.4481 20.7412 21.1844C20.9486 20.7786 21.0872 20.3413 21.1514 19.8902C21.1807 19.7165 21.1733 19.5386 21.1299 19.368C21.0531 19.0331 21.0531 18.6852 21.1299 18.3503C21.1744 18.0424 21.151 17.7286 21.0613 17.4307C20.9939 17.1655 20.9427 16.8965 20.908 16.6251C20.8851 16.4681 20.8206 16.1365 20.9389 16.0009C21.0088 15.923 21.0814 15.8975 21.1648 15.9807C21.0465 16.0076 21.2052 16.2814 21.2052 16.3445C21.2495 16.2533 21.3813 16.0089 21.2388 15.9324C21.1715 15.8961 21.0465 15.9324 20.9967 15.8518" fill="#1F515B"/>
<path d="M5.00617 15.2881L4.96046 15.323C4.35938 15.7741 4.7211 15.9943 4.98331 16.5461C5.16216 16.9193 5.33562 17.5288 4.92415 17.8041C4.83489 17.6688 4.77321 17.5174 4.74261 17.3583C4.55167 16.7367 3.83226 17.1959 3.73678 16.7246C3.57677 16.9421 3.46785 17.1892 3.29841 17.3959C4.46561 17.2509 4.6969 19.5225 3.85108 19.5749C3.91632 19.4609 3.94542 19.3298 3.93457 19.1989C3.92371 19.0681 3.87341 18.9436 3.79028 18.8418C3.70715 18.7401 3.5951 18.6659 3.46889 18.629C3.34268 18.5921 3.20824 18.5942 3.08326 18.6351C1.85018 19.0097 2.09626 20.9402 2.50908 21.7713C3.10209 22.9648 4.92953 22.2975 4.68614 21.0221C4.59201 20.524 4.14826 20.0192 3.61038 19.9776C3.2527 19.9508 2.95552 20.1938 2.80357 20.4985C2.73007 20.643 2.68756 20.8012 2.67877 20.963C2.66997 21.1249 2.69507 21.2867 2.75247 21.4383C2.76323 21.4652 2.9609 21.7847 2.91921 21.786C2.83719 21.786 2.76054 21.6773 2.71482 21.6196C2.61358 21.481 2.5424 21.3228 2.50582 21.1552C2.46924 20.9877 2.46806 20.8143 2.50236 20.6462C2.64489 20.0689 3.12495 19.7333 3.71258 19.7064C3.9937 19.6912 4.27266 19.7632 4.51123 19.9124C4.7498 20.0617 4.9363 20.2809 5.04517 20.5402C5.44858 21.4799 5.25225 22.5902 4.34324 23.1407C3.92241 23.3858 3.43544 23.4938 2.95022 23.4495C2.465 23.4052 2.00571 23.2109 1.63638 22.8936C0.955962 22.3016 0.67761 21.4907 0.470527 20.6516C0.400603 20.3683 0.315888 20.0823 0.21907 19.8071C0.144896 19.5478 0.108218 19.2793 0.11015 19.0097C0.11015 18.8969 0.166627 18.6713 0.0119874 18.6485C-0.00683828 18.4203 0.237896 17.9531 0.106116 17.7705C-0.102311 17.8766 0.056362 17.4939 0.0805665 17.4268C0.138388 17.2751 0.340093 16.871 0.267479 16.7166C0.220415 16.7475 0.184108 16.7945 0.13301 16.7985C0.103427 16.581 0.288994 16.2964 0.357573 16.0923C0.405982 15.9513 0.560622 15.7433 0.528349 15.5915C0.422119 15.5741 0.400603 15.6855 0.315888 15.7258C0.134354 15.5727 0.877969 14.6451 0.988234 14.5175C1.76412 13.6543 2.61531 13.1454 3.81209 13.1011C3.91832 13.1011 4.06758 13.0823 4.12137 13.0139C4.41989 12.6232 5.14602 12.8165 5.57498 12.7548C5.77265 12.7266 5.9636 12.6299 6.15992 12.6205C6.55526 12.6044 6.56333 12.9024 6.7731 13.1575C6.90757 13.3159 7.08641 13.4032 7.22492 13.5348C7.26691 13.575 7.29968 13.6239 7.32096 13.678C7.34225 13.7321 7.35155 13.7902 7.34823 13.8482C7.3449 13.9063 7.32904 13.9629 7.30172 14.0142C7.2744 14.0656 7.23627 14.1104 7.18995 14.1456C7.02456 14.2866 6.7341 14.343 6.53106 14.3967C6.30503 14.449 6.09365 14.5513 5.9125 14.6961C5.77483 14.8296 5.62541 14.9504 5.46606 15.0572C5.30703 15.1222 5.15328 15.1994 5.00617 15.2881Z" fill="#1F515B"/>
<path d="M13.0541 15.4121C13.1079 15.4121 13.0434 15.5396 13.0299 15.5584C12.9879 15.6096 12.9391 15.6548 12.8847 15.6927C12.7109 15.8376 12.5806 16.0276 12.5082 16.2418C12.4446 16.3813 12.4128 16.5331 12.4151 16.6863C12.4175 16.8396 12.4538 16.9904 12.5216 17.1279C12.5858 17.2705 12.6657 17.4055 12.7596 17.5306C12.825 17.6068 12.8714 17.6974 12.8947 17.795C12.9181 17.8926 12.9179 17.9943 12.8941 18.0918C12.8345 18.3264 12.8448 18.5732 12.9237 18.802C12.9479 18.8586 12.9826 18.91 13.0259 18.9537C13.0592 18.9903 13.0822 19.035 13.0929 19.0833C13.1035 19.1316 13.1013 19.1818 13.0864 19.2289C13.0676 19.3108 13.0057 19.3162 12.9519 19.2571C12.8458 19.1335 12.7475 19.0035 12.6575 18.8678C12.6212 18.7986 12.6022 18.7217 12.6023 18.6436C12.5916 18.4637 12.6131 18.2798 12.5848 18.1066C12.5217 17.7694 12.3316 17.4692 12.0537 17.2675C11.8802 17.1332 11.7 16.999 11.5373 16.8513C11.4531 16.7816 11.3921 16.688 11.3625 16.5828C11.2886 16.227 11.0384 16.0632 10.7305 15.9545C10.3836 15.831 10.0326 15.7195 9.68972 15.5906C9.29384 15.4554 8.91903 15.2651 8.57631 15.0254C8.39343 14.8912 8.1998 14.7663 7.99137 14.6227C7.98011 14.6781 7.97247 14.7341 7.96851 14.7905C7.96067 14.9279 7.96292 15.0656 7.97523 15.2027C7.99644 15.2818 8.03199 15.3564 8.08012 15.4228C8.10701 15.4738 8.15946 15.5155 8.1729 15.5678C8.17647 15.5922 8.17418 15.6171 8.16624 15.6404C8.15829 15.6638 8.1449 15.6849 8.12718 15.7021C8.10792 15.7103 8.08681 15.7133 8.06602 15.7107C8.04523 15.7081 8.0255 15.7 8.00885 15.6873C7.88345 15.5586 7.77169 15.4174 7.67537 15.2658C7.64443 15.1752 7.64443 15.077 7.67537 14.9865C7.70007 14.9 7.7048 14.809 7.6892 14.7204C7.67359 14.6318 7.63806 14.5479 7.58527 14.475C7.56381 14.439 7.54978 14.3991 7.54401 14.3576C7.53823 14.3161 7.54083 14.2738 7.55166 14.2333C7.57081 14.1877 7.60662 14.1511 7.65182 14.1309C7.69702 14.1107 7.74823 14.1085 7.79504 14.1246C7.99137 14.1743 8.18366 14.2454 8.37595 14.3099C8.398 14.322 8.41873 14.3364 8.43781 14.3528C8.66237 14.5018 8.65699 14.4965 8.75784 14.2494C8.84944 14.0343 8.95314 13.8246 9.06847 13.6211C9.20167 13.3408 9.26707 13.0332 9.25941 12.723C9.25941 12.6706 9.20428 12.6062 9.15856 12.5646C9.09973 12.5241 9.03482 12.4933 8.96627 12.4733C8.91652 12.4531 8.8587 12.4491 8.81029 12.4263C8.73328 12.3704 8.677 12.2906 8.65027 12.1994C8.62886 12.1485 8.61966 12.0933 8.62338 12.0383C8.63 12.0135 8.64442 11.9915 8.66452 11.9756C8.68462 11.9596 8.70932 11.9505 8.73498 11.9497C8.76053 11.9497 8.76995 11.9738 8.79146 11.9819C8.82632 11.9895 8.86215 11.9918 8.89769 11.9886C9.04626 11.9916 9.19457 11.9749 9.33875 11.9389C9.47243 11.9203 9.60784 11.9176 9.74216 11.9309C9.80402 11.9309 9.87663 11.9577 9.92369 11.9309C10.0153 11.8738 10.0937 11.7978 10.1536 11.708C10.2236 11.5926 10.1362 11.3603 10.0057 11.2636C9.89545 11.1817 9.77712 11.1092 9.67089 11.022C9.56946 10.9419 9.47622 10.8519 9.39254 10.7535C9.34413 10.6957 9.31993 10.5615 9.39254 10.5091C9.46515 10.4568 9.5028 10.5507 9.51625 10.6044C9.52486 10.6666 9.54253 10.7273 9.56869 10.7843C9.59962 10.838 9.66013 10.8716 9.70316 10.8031C9.7284 10.7086 9.73344 10.6098 9.71795 10.5132C9.70581 10.4299 9.71507 10.3449 9.74485 10.2661C9.7704 10.2191 9.81612 10.1842 9.85646 10.2339C9.8968 10.2836 9.87663 10.3682 9.8699 10.4219C9.85646 10.5208 9.85646 10.621 9.8699 10.7199C9.87134 10.7664 9.88233 10.8121 9.90218 10.8542C9.92819 10.876 9.95775 10.8933 9.98958 10.9052C10.0272 10.924 10.0447 10.7239 10.0434 10.7038C10.0434 10.6367 10.0434 10.5695 10.12 10.544C10.1967 10.5185 10.2289 10.5991 10.2209 10.6595C10.2052 10.7173 10.184 10.7735 10.1577 10.8273C10.1146 10.9522 10.2047 11.0636 10.2693 11.1643C10.3338 11.265 10.4037 11.2784 10.4548 11.1831C10.4912 11.12 10.5033 11.0314 10.5893 11.0099C10.6982 10.9817 10.7157 11.1227 10.6834 11.1952C10.6337 11.3066 10.5006 11.3496 10.4441 11.4529C10.4024 11.5321 10.3648 11.6154 10.3284 11.6973C10.3069 11.7469 10.2289 11.8597 10.2437 11.9134C10.2585 11.9671 10.3069 11.9215 10.3405 11.9054C10.3742 11.8893 10.4266 11.8718 10.475 11.8557C10.4952 11.8476 10.5006 11.8356 10.518 11.8557C10.5638 11.9013 10.475 11.9899 10.4522 12.0316C10.4136 12.1014 10.3531 12.1566 10.28 12.1886C10.2262 12.2128 10.1536 12.2705 10.1456 12.3229C10.0984 12.6872 10.0719 13.0538 10.0662 13.4211C10.0662 13.9514 10.3486 14.3421 10.7897 14.6294C11.14 14.8664 11.5291 15.0404 11.9394 15.1436C12.246 15.2147 12.4383 15.6685 12.8094 15.5866C12.8606 15.5741 12.9096 15.5537 12.9546 15.5262C12.977 15.5125 12.9978 15.4963 13.0165 15.4779C13.0313 15.4618 13.0367 15.4336 13.0595 15.4282L13.0541 15.4121Z" fill="#1F515B"/>
<path d="M13.1904 18.2609C13.2085 18.2782 13.2256 18.2966 13.2415 18.316C13.3329 18.4288 13.2831 18.5697 13.2818 18.7013C13.2804 18.8329 13.3947 18.802 13.4243 18.6852C13.4403 18.6175 13.438 18.5468 13.4177 18.4803C13.3974 18.4138 13.3598 18.3539 13.3087 18.3066C13.2596 18.2698 13.2145 18.228 13.1742 18.1817C13.1567 18.1562 13.1029 18.0636 13.1272 18.0327C13.1118 18.049 13.1003 18.0686 13.0935 18.09C13.0868 18.1114 13.0849 18.134 13.0882 18.1562C13.0643 18.1555 13.041 18.1634 13.0225 18.1785C13.004 18.1935 12.9915 18.2147 12.9873 18.2381C13.0384 18.1495 13.1245 18.2046 13.1904 18.2609Z" fill="#1F515B"/>
<path d="M13.5005 0.00928303C13.3795 0.0401615 13.2181 0.130112 13.1482 0.143537C12.9707 0.182471 12.7125 0.0616418 12.5781 0.228117C12.4153 0.0938628 12.0402 -0.040391 11.8694 0.167703C11.8129 0.236173 11.8291 0.277791 11.9259 0.287189C11.985 0.293902 12.0415 0.236172 12.0993 0.228117C12.1812 0.222214 12.2627 0.243966 12.3306 0.289874C12.4651 0.365057 12.57 0.475145 12.7018 0.558383C12.8315 0.619571 12.9738 0.649463 13.1173 0.645648C13.1616 0.645648 13.3755 0.622825 13.3674 0.543615C13.3674 0.511394 13.1724 0.543615 13.1307 0.528847C13.0581 0.511394 12.9156 0.469775 12.8994 0.379824C12.8779 0.263023 13.0433 0.289874 13.1065 0.30867C13.3002 0.367742 13.5341 0.422786 13.6202 0.193211C13.6874 0.00525527 13.6121 -0.0175678 13.5005 0.00928303Z" fill="#1F515B"/>
<path d="M15.7799 20.1548C15.7342 20.2058 15.831 20.3361 15.8512 20.3817C15.8895 20.4655 15.9214 20.5521 15.9466 20.6408C15.9958 20.8108 16.0077 20.9894 15.9816 21.1644C15.9238 21.547 15.1842 22.4868 14.7243 22.1445C14.5764 22.3579 14.3868 22.5848 14.1232 22.2962C14.0143 22.5942 13.6687 22.5083 13.4737 22.3458C13.2384 22.6895 12.8807 22.4479 12.6185 22.315C12.4155 22.5835 12.3966 22.4841 12.0887 22.3821C11.8292 22.2948 11.8198 22.5069 11.61 22.5163C11.5024 22.5163 11.3733 22.3821 11.2469 22.417C11.1205 22.4519 11.0829 22.5727 10.9605 22.6117C10.8381 22.6506 10.7265 22.6117 10.6109 22.6439C10.4952 22.6761 10.3863 22.7781 10.2478 22.7996C9.96679 22.852 9.72609 22.9446 9.44101 23.0238C8.99054 23.1581 8.62075 23.2091 8.23079 22.8896C8.15742 22.8426 8.07519 22.811 7.98916 22.797C7.90313 22.7829 7.81513 22.7865 7.73056 22.8077C7.48603 22.885 7.22793 22.91 6.97308 22.8811C6.71822 22.8522 6.47232 22.77 6.2514 22.6399C6.0322 22.5249 5.78762 22.4668 5.54006 22.4707C5.49262 22.4698 5.44547 22.4783 5.40132 22.4956C5.35717 22.513 5.31688 22.5389 5.28278 22.5718C5.24867 22.6047 5.22141 22.644 5.20256 22.6875C5.18372 22.731 5.17366 22.7778 5.17296 22.8251C5.17168 22.8734 5.182 22.9212 5.20306 22.9647C5.22412 23.0081 5.25529 23.0459 5.29398 23.0748C5.32087 23.1003 5.59788 23.2252 5.58981 23.197C5.58409 23.1524 5.58409 23.1073 5.58981 23.0628C5.72428 23.0413 5.69604 23.2225 5.79824 23.2279C5.78814 23.1966 5.78707 23.1632 5.79516 23.1314C5.80325 23.0995 5.82016 23.0706 5.84396 23.048C5.86547 23.1353 5.92061 23.2802 6.01339 23.2856C6.00565 23.257 6.00595 23.2269 6.01425 23.1985C6.02256 23.17 6.03854 23.1445 6.06045 23.1245C6.17744 23.2346 6.2124 23.346 6.37377 23.4078C6.53513 23.4695 6.70725 23.4669 6.86727 23.5273C7.08511 23.6105 7.31909 23.6615 7.53962 23.7206C7.57861 23.7313 7.61895 23.7394 7.63643 23.7931C7.3378 23.8587 7.03496 23.9036 6.73011 23.9274C6.54454 23.9394 6.25006 24.0536 6.07121 23.9743C6.02011 23.9515 5.81841 23.6588 5.83051 23.9233C5.83051 23.8669 5.57636 23.7031 5.5051 23.7475C5.38004 23.824 5.38811 24.1824 5.45803 24.2845C5.57169 24.4117 5.73021 24.4901 5.90044 24.5033C6.40066 24.5677 6.90627 24.5798 7.40515 24.6443C7.70905 24.6832 8.00085 24.7987 8.3034 24.8537C8.79018 24.9437 9.28099 25.0108 9.76912 25.09C9.82664 25.1044 9.88322 25.1224 9.93855 25.1437C9.59968 25.4122 9.08601 25.184 8.85473 25.631L9.07256 25.6727L8.95423 25.8069C9.17342 26.0754 9.41546 26.0284 9.68978 25.8808C9.94165 25.7445 10.2043 25.6291 10.4751 25.5357C10.7104 25.4538 10.8408 25.3263 10.8502 25.0766C10.8548 25.0374 10.8684 24.9999 10.8902 24.967C10.9119 24.9341 10.941 24.9068 10.9753 24.8873C11.4316 24.762 11.8897 24.6483 12.3496 24.5463C12.395 24.5348 12.4422 24.5327 12.4885 24.5401C12.5347 24.5474 12.579 24.5642 12.6185 24.5892C12.7933 24.7423 12.7328 24.8967 12.5136 24.992C12.3941 25.0479 12.2908 25.1334 12.2138 25.2404C12.1438 25.3317 12.1949 25.388 12.2985 25.4766C12.5311 25.6794 12.7019 25.5666 12.9022 25.4592C13.0448 25.3827 13.19 25.3102 13.3285 25.2242C13.3663 25.208 13.4002 25.1841 13.4281 25.1539C13.456 25.1238 13.4773 25.0882 13.4906 25.0494C13.5039 25.0106 13.5089 24.9694 13.5053 24.9285C13.5017 24.8877 13.4896 24.848 13.4697 24.8121C13.4473 24.7749 13.4331 24.7334 13.4278 24.6903C13.4225 24.6473 13.4263 24.6036 13.4389 24.5621C13.4516 24.5206 13.4729 24.4822 13.5013 24.4494C13.5298 24.4166 13.5648 24.3902 13.6042 24.3717C14.0721 24.067 14.5455 23.7582 15.0269 23.487C15.5365 23.2051 16.034 22.9245 16.3447 22.4036C16.8207 21.598 16.6499 20.6744 15.9332 20.2058C15.9009 20.1843 15.827 20.1266 15.7987 20.1535L15.7799 20.1548Z" fill="#1F515B"/>
<path d="M8.25748 12.3135C8.22118 12.0652 7.98855 12.045 7.81508 12.0383L7.83794 12.0222C8.02754 11.8785 8.19025 11.5067 7.93745 11.3509C7.88846 11.3168 7.82808 11.303 7.76909 11.3125C7.71011 11.322 7.65715 11.3541 7.62144 11.4019C7.58159 11.4527 7.54984 11.5093 7.52732 11.5698C7.50715 11.6181 7.49773 11.704 7.46411 11.7376C7.42512 11.6731 7.42646 11.5859 7.37268 11.5187C7.32582 11.4607 7.26183 11.4189 7.1898 11.3993C7.10985 11.3803 7.02587 11.3886 6.95112 11.4226C6.87637 11.4566 6.8151 11.5145 6.77698 11.5872C6.74429 11.65 6.73241 11.7215 6.74305 11.7915C6.75368 11.8615 6.78628 11.9263 6.83614 11.9765C6.89029 12.0359 6.9575 12.0818 7.03247 12.1108C6.86438 12.1403 6.68554 12.2289 6.77967 12.4344C6.79499 12.4697 6.81908 12.5006 6.84967 12.5241C6.88025 12.5476 6.91632 12.5629 6.95448 12.5686C7.0365 12.5807 7.22341 12.5216 7.24762 12.4344C7.22901 12.4872 7.22314 12.5438 7.23047 12.5993C7.2378 12.6549 7.25813 12.708 7.28981 12.7542C7.32149 12.8005 7.36364 12.8387 7.41285 12.8657C7.46205 12.8927 7.51693 12.9077 7.57304 12.9096C7.84197 12.8975 7.7075 12.6116 7.68464 12.4679C7.85677 12.6747 8.31127 12.6693 8.25748 12.3135ZM7.62144 12.2007C7.55286 12.3417 7.27586 12.3202 7.3915 12.1269C7.40297 12.1092 7.41755 12.0938 7.43453 12.0813C7.53135 12.0115 7.69271 12.0544 7.62144 12.2007Z" fill="#1F515B"/>
<path d="M7.66237 0.852085C7.66378 0.869827 7.66026 0.887614 7.65219 0.903486C7.64413 0.919358 7.63183 0.932697 7.61665 0.942035C7.4887 1.03004 7.38173 1.14509 7.30334 1.27901C7.26031 1.35151 7.27106 1.41327 7.34906 1.44012C7.42348 1.46265 7.50012 1.47705 7.57765 1.48308C7.77263 1.50993 7.9703 1.57706 7.74843 1.78112C7.67716 1.84691 7.28317 1.9382 7.36385 2.07246C7.46067 2.23088 7.81701 2.08185 7.95282 2.04829C8.18546 1.9919 8.34682 1.75159 8.58214 1.72205C8.79693 1.70459 9.0128 1.70459 9.22759 1.72205C9.27538 1.72589 9.32181 1.73984 9.36378 1.76299C9.40574 1.78614 9.44229 1.81795 9.47098 1.85631C9.53397 1.93383 9.6135 1.99636 9.70375 2.03933C9.79401 2.08229 9.89273 2.10462 9.99272 2.10468C10.1501 2.11273 10.4499 1.93015 10.5145 2.1906C10.5266 2.24027 10.4755 2.35976 10.5225 2.39869C10.6153 2.47388 10.6947 2.26444 10.7041 2.19865C10.7103 2.12669 10.6977 2.05434 10.6675 1.98869C10.6373 1.92304 10.5906 1.86632 10.5319 1.82409C10.4284 1.7489 10.263 1.71534 10.2267 1.5784C10.2799 1.59285 10.3355 1.59626 10.3901 1.58841C10.4447 1.58055 10.4971 1.56161 10.544 1.53275C10.5669 1.5153 10.5925 1.47771 10.618 1.47368C10.6421 1.47806 10.6659 1.48389 10.6893 1.49113C10.7345 1.49368 10.7794 1.48142 10.817 1.45623C10.86 1.43743 10.9085 1.45623 10.9515 1.45623C11.0022 1.45468 11.0521 1.44281 11.0981 1.42132C11.1901 1.38174 11.2646 1.31019 11.3078 1.21994C11.3368 1.24957 11.3719 1.27249 11.4107 1.28711C11.4495 1.30172 11.491 1.30766 11.5324 1.30452C11.6144 1.30452 11.6817 1.24008 11.7556 1.23202C11.7731 1.31929 11.9156 1.3354 11.9856 1.31526C12.0201 1.29917 12.0491 1.27326 12.069 1.24078C12.0888 1.2083 12.0986 1.1707 12.0972 1.13268C12.0994 1.0912 12.0934 1.0497 12.0797 1.0105C12.0407 0.909561 11.9747 0.821296 11.8887 0.755421C11.7324 0.638247 11.5458 0.567933 11.3509 0.552698C11.1034 0.524533 10.8539 0.584434 10.6462 0.721858C10.3437 0.931294 10.1622 1.17698 9.76278 1.04138C9.69614 1.02536 9.62818 1.01548 9.55973 1.01185C9.21011 0.963515 8.86452 1.03601 8.51625 1.04407C8.41953 1.0504 8.32239 1.04453 8.22714 1.02661C8.12501 1.00377 8.03164 0.952035 7.9582 0.877593C7.93241 0.85492 7.91177 0.826996 7.89769 0.795698C7.87349 0.716488 7.8829 0.511079 7.76322 0.649361C7.70655 0.702825 7.67079 0.774692 7.66237 0.852085Z" fill="#1F515B"/>
<path d="M14.4757 21.7975C14.4515 21.866 14.6976 21.8767 14.7285 21.8646C14.7709 21.8423 14.808 21.8112 14.8374 21.7735C14.8669 21.7358 14.888 21.6923 14.8993 21.6458C15.1091 21.8995 15.3794 21.5666 15.3216 21.3249C15.4843 21.3249 15.5905 21.3008 15.6416 21.1329C15.6846 20.9987 15.6752 20.8228 15.5542 20.749C15.6618 20.6577 15.5918 20.4147 15.4291 20.4456C15.2664 20.4764 15.0257 21.0014 14.9262 21.141C14.8389 21.2729 14.7314 21.3902 14.6075 21.4887C14.5255 21.5491 13.9863 21.7465 14.1759 21.913C14.266 21.9962 14.4421 21.8915 14.4757 21.7975Z" fill="#1F515B"/>
<path d="M7.77457 12.5439C7.82029 12.6943 7.94266 12.8312 7.97897 13.0031C8.00744 13.1571 8.00285 13.3154 7.96552 13.4676C7.94804 13.5629 7.79878 13.9872 8.04082 13.9348C8.11075 13.8005 8.00317 13.5495 8.13092 13.4434C8.25866 13.3374 8.4523 13.3776 8.57735 13.2743C8.67243 13.185 8.74086 13.0711 8.77502 12.9453C8.71035 12.8823 8.62531 12.8443 8.53513 12.8382C8.44495 12.832 8.35553 12.8581 8.28287 12.9118C8.15781 13.0111 8.13764 13.1521 8.0852 13.2904C8.07041 13.0769 8.0852 12.8876 7.97224 12.6943C7.93694 12.6325 7.89148 12.5772 7.83777 12.5305C7.78802 12.4822 7.64279 12.4593 7.77457 12.5439Z" fill="#1F515B"/>
<path d="M17.0143 20.2309C16.6661 20.6028 16.7979 21.7386 17.6235 21.4701C18.2205 21.2754 17.9771 20.4256 17.5052 20.1893C17.2846 20.0792 17.1219 20.1155 17.0143 20.2309Z" fill="#1F515B"/>
<path d="M19.4355 16.022C19.3104 16.0784 19.301 16.2194 19.2634 16.3926C19.2109 16.6611 19.1665 16.7121 18.9178 16.6611C18.7067 16.6181 18.4767 16.5443 18.4055 16.8141C18.3059 17.1954 18.5843 17.1565 18.8371 17.2666C19.2862 17.4639 18.7026 17.9553 19.1155 18.1419C19.2687 18.2117 19.4301 18.2668 19.5619 18.1419C19.6937 18.017 19.6251 17.7808 19.7367 17.6626C19.9357 17.4545 20.2947 17.8237 20.4252 17.4881C20.4669 17.382 20.5032 17.1457 20.4252 17.0477C20.2988 16.8839 20.0352 17.0276 19.8967 16.845C19.7582 16.6624 20.0312 16.3966 20.0016 16.1979C19.972 15.9992 19.6009 15.9468 19.4355 16.022Z" fill="#1F515B"/>
<path d="M8.80547 2.23343C8.80338 2.23656 8.8006 2.23916 8.79733 2.24103C8.79406 2.24289 8.7904 2.24397 8.78664 2.24417C8.76647 2.24417 8.74092 2.22404 8.7221 2.21732C8.47871 2.13946 8.30255 2.3019 8.25683 2.5449C8.21111 2.7879 8.27566 3.08192 8.5177 3.20812L8.54191 3.2202C8.56386 3.22945 8.58788 3.2327 8.61151 3.22964C8.63513 3.22657 8.65752 3.21729 8.67638 3.20275C8.74227 3.16516 8.75706 3.18664 8.81085 3.22423C8.86732 3.2525 8.93141 3.26189 8.99363 3.25101C9.05586 3.24013 9.11294 3.20956 9.15643 3.16382C9.23229 3.1065 9.29538 3.03405 9.34168 2.95107C9.38798 2.8681 9.41648 2.77641 9.42537 2.68184C9.4373 2.58398 9.41801 2.48485 9.37024 2.39857C9.32658 2.32846 9.25783 2.27758 9.17795 2.25626C9.14369 2.24632 9.10857 2.23958 9.07306 2.23612C9.05155 2.23612 8.98162 2.26163 9.00717 2.21732C9.02268 2.19846 9.0393 2.18053 9.05693 2.16362C9.08382 2.13006 9.10802 2.08441 9.05693 2.06964C9.03269 2.06674 9.00824 2.07297 8.98835 2.0871C8.96818 2.09918 8.95204 2.12603 8.93456 2.13677C8.91708 2.14751 8.92515 2.14617 8.91439 2.12737C8.90922 2.11544 8.90604 2.10274 8.90497 2.08978C8.90006 2.04624 8.8873 2.00394 8.86732 1.96493C8.8364 1.91525 8.73285 1.84141 8.69655 1.92599C8.66024 2.01057 8.72748 2.08441 8.77454 2.14751C8.78126 2.16899 8.82026 2.21195 8.80547 2.23343Z" fill="#1F515B"/>
<path d="M4.09667 20.4395C4.01467 20.3668 3.91447 20.3177 3.80673 20.2974C3.69899 20.2771 3.58775 20.2863 3.48484 20.3241C3.36107 20.3582 3.24745 20.4219 3.15377 20.5096C3.06008 20.5973 2.98911 20.7064 2.94696 20.8275C2.90429 20.9633 2.89964 21.1081 2.93351 21.2464C2.96375 21.3601 3.02042 21.465 3.09893 21.5527C3.17744 21.6405 3.27556 21.7084 3.38533 21.7512C3.5021 21.7881 3.62574 21.7979 3.74689 21.78C3.86804 21.7621 3.98352 21.7169 4.08457 21.6478C4.17185 21.5784 4.24224 21.4902 4.29045 21.3897C4.33866 21.2893 4.36344 21.1792 4.36292 21.0678C4.36292 21.0571 4.36292 21.0477 4.36292 21.0369C4.36284 20.9243 4.33911 20.8129 4.29325 20.71C4.24739 20.6071 4.18042 20.515 4.09667 20.4395ZM4.05768 20.8423C4.03401 20.8975 3.99869 20.9469 3.95414 20.9873C3.87345 21.0772 3.79546 21.1739 3.7094 21.2558C3.68218 21.2922 3.64547 21.3205 3.60327 21.3375C3.56106 21.3546 3.51498 21.3597 3.47005 21.3524C3.43445 21.3409 3.40185 21.3216 3.37457 21.2961C3.31137 21.237 3.2159 21.0839 3.31541 21.0128C3.38533 20.9631 3.44181 21.0974 3.49291 21.1242C3.72419 21.2437 3.77933 20.6288 3.98506 20.7376C4.02137 20.759 4.06575 20.7939 4.05768 20.8382V20.8423Z" fill="#1F515B"/>
<path d="M19.2885 13.9505C19.2702 14.047 19.2422 14.1414 19.2051 14.2324C19.1598 14.3299 19.1372 14.4364 19.1392 14.5439C19.1258 14.6175 19.106 14.6898 19.0801 14.76C19.0681 14.7998 19.0609 14.8408 19.0586 14.8822C19.0514 15.0646 18.9854 15.2398 18.8703 15.3816C18.8419 15.4186 18.8041 15.4474 18.7609 15.4649C18.7176 15.4823 18.6704 15.4879 18.6242 15.481C18.6041 15.481 18.5718 15.4581 18.5704 15.4447C18.5691 15.4144 18.5782 15.3846 18.596 15.3601C18.6245 15.3348 18.6551 15.3118 18.6874 15.2917C18.724 15.2648 18.7547 15.2309 18.7778 15.1919C18.8009 15.1529 18.8159 15.1097 18.8219 15.0648C18.8392 14.9385 18.8735 14.8152 18.9241 14.6983C18.94 14.6465 18.9477 14.5926 18.9469 14.5385C18.9469 14.4741 18.9469 14.4042 18.9577 14.3425C18.9671 14.2485 18.9806 14.1545 18.994 14.0619C19.0014 14.0163 19.0126 13.9714 19.0276 13.9276C19.0567 13.7805 19.0657 13.6301 19.0545 13.4806C19.0545 13.3691 19.0707 13.2577 19.0801 13.1463C19.0995 13.0238 19.0827 12.8982 19.0317 12.7851C18.9779 12.6842 18.9191 12.5861 18.8555 12.4911C18.8249 12.4447 18.8086 12.3903 18.8086 12.3347C18.8086 12.2791 18.8249 12.2247 18.8555 12.1783C18.9358 12.0218 18.9577 11.842 18.9174 11.6708C18.8937 11.3132 18.8937 10.9544 18.9174 10.5968C18.8978 10.3414 18.9019 10.0848 18.9295 9.8302C18.9765 9.5778 19.1083 9.34151 19.0841 9.07703C19.072 8.9765 19.036 8.88031 18.9792 8.79644C18.9402 8.73334 18.908 8.66219 18.8676 8.60446C18.8493 8.58208 18.8251 8.56533 18.7977 8.55613C18.7237 8.53549 18.6559 8.49725 18.6 8.44469C18.5874 8.43266 18.5783 8.4174 18.5737 8.40056C18.5692 8.38373 18.5693 8.36596 18.5742 8.34921C18.579 8.33246 18.5884 8.31736 18.6012 8.30555C18.6141 8.29374 18.63 8.28568 18.6471 8.28225C18.6811 8.27398 18.7165 8.27318 18.7509 8.2799C18.7852 8.28662 18.8177 8.30071 18.8461 8.32118C18.9664 8.3981 19.1066 8.43824 19.2495 8.43664C19.3039 8.44424 19.3548 8.46758 19.3961 8.50377C19.4271 8.5301 19.4651 8.5468 19.5055 8.55181C19.5459 8.55682 19.5868 8.54992 19.6233 8.53196C19.6704 8.51451 19.6583 8.49168 19.6852 8.45543C19.6959 8.44012 19.7122 8.42968 19.7306 8.42641C19.7491 8.42314 19.768 8.4273 19.7833 8.43798C19.7987 8.44866 19.8091 8.46499 19.8124 8.48337C19.8157 8.50175 19.8115 8.52068 19.8008 8.53599C19.7699 8.58432 19.6919 8.56418 19.6664 8.60983C19.6408 8.65547 19.7107 8.72931 19.747 8.75751C19.7838 8.78275 19.8274 8.79632 19.8721 8.79644C19.9084 8.79644 19.9541 8.78033 19.9797 8.81926C19.985 8.82858 19.9881 8.83897 19.9888 8.84966C19.9895 8.86035 19.9878 8.87106 19.9838 8.881C19.9798 8.89094 19.9736 8.89984 19.9657 8.90705C19.9577 8.91426 19.9483 8.91959 19.938 8.92264C19.8788 8.94143 19.8035 8.88236 19.7336 8.87565C19.5749 8.85954 19.4983 8.91861 19.4768 9.073C19.4512 9.25022 19.4257 9.42609 19.4122 9.60331C19.3858 9.97016 19.393 10.3387 19.4337 10.7042C19.431 10.8618 19.4598 11.0183 19.5184 11.1647C19.583 11.2761 19.6892 11.3244 19.7497 11.4587C19.8178 11.6376 19.917 11.803 20.0429 11.9474C20.1386 12.0427 20.2531 12.1172 20.379 12.1662C20.629 12.2615 20.8548 12.4104 21.0406 12.6025C21.1083 12.691 21.1544 12.7939 21.1751 12.9033C21.2152 13.0855 21.2373 13.2712 21.241 13.4577C21.2525 13.5652 21.27 13.6718 21.2934 13.7773C21.2934 13.7773 21.2934 13.7934 21.3028 13.7961C21.3372 13.8248 21.3635 13.8619 21.3792 13.9038C21.395 13.9456 21.3997 13.9908 21.3929 14.035C21.3929 14.1478 21.3929 14.2619 21.3929 14.3747C21.3943 14.3924 21.3906 14.4101 21.3822 14.4257C21.3714 14.4418 21.3526 14.4633 21.3365 14.4633C21.3203 14.4633 21.2975 14.4459 21.2867 14.4297C21.2737 14.4071 21.2659 14.3819 21.2639 14.3559C21.2491 14.2458 21.2396 14.1371 21.2262 14.027C21.2141 13.9411 21.202 13.8551 21.1885 13.7692C21.1751 13.6833 21.1549 13.6081 21.1442 13.5276C21.1173 13.3329 21.0958 13.1396 21.0702 12.9449C21.0702 12.9274 21.0541 12.9127 21.046 12.8952C21.0366 12.9127 21.0205 12.9274 21.0178 12.9449C20.9989 13.0912 20.9788 13.2362 20.9653 13.3826C20.9471 13.5289 20.9753 13.6773 21.046 13.8068C21.0729 13.8551 21.1159 13.8941 21.1469 13.9411C21.1596 13.9631 21.1666 13.9881 21.167 14.0136C21.1753 14.2143 21.1682 14.4154 21.1455 14.615C21.1274 14.7961 21.1193 14.9781 21.1213 15.1601C21.1191 15.2054 21.1072 15.2497 21.0862 15.29C21.0652 15.3302 21.0358 15.3655 20.9999 15.3933C20.964 15.4211 20.9225 15.4408 20.8782 15.4511C20.8339 15.4614 20.788 15.4619 20.7435 15.4528C20.7286 15.4483 20.7145 15.4415 20.7018 15.4326C20.6534 15.3977 20.6534 15.3762 20.7085 15.3561C20.7819 15.3288 20.8452 15.2797 20.8897 15.2153C20.9342 15.151 20.9578 15.0745 20.9573 14.9963C20.9653 14.9037 20.9667 14.811 20.9667 14.7184C20.9667 14.5841 20.9586 14.4351 20.9667 14.2941C20.9699 14.2065 20.9444 14.1203 20.8941 14.0485L20.7717 13.8686H20.7569C20.7594 13.9006 20.7639 13.9324 20.7704 13.9639C20.7838 14.0136 20.804 14.0632 20.8161 14.1129C20.8353 14.2553 20.7987 14.3996 20.7139 14.5157C20.6238 14.6781 20.5377 14.8432 20.4584 15.0124C20.4232 15.1001 20.3932 15.1898 20.3683 15.2809C20.3574 15.3147 20.3399 15.3459 20.3168 15.3729C20.2937 15.3998 20.2655 15.422 20.2338 15.438C20.1497 15.4796 20.0625 15.5146 19.9729 15.5427C19.965 15.5469 19.9563 15.5494 19.9474 15.5502C19.9385 15.5509 19.9295 15.5499 19.921 15.5471C19.9125 15.5444 19.9046 15.54 19.8978 15.5341C19.891 15.5283 19.8855 15.5212 19.8815 15.5132C19.8627 15.4702 19.8923 15.4434 19.9205 15.4205C19.9756 15.3749 20.0294 15.3279 20.0872 15.2863C20.1552 15.2314 20.2068 15.159 20.2365 15.0769C20.2822 14.9788 20.3306 14.8835 20.3777 14.7869C20.4893 14.588 20.539 14.3603 20.5202 14.133C20.5123 14.0833 20.4973 14.035 20.4759 13.9894C20.4207 13.8659 20.3616 13.7437 20.3024 13.6215C20.2782 13.5719 20.2446 13.5262 20.2217 13.4765C20.1952 13.4202 20.1732 13.3618 20.1558 13.302C20.1383 13.2362 20.1074 13.2053 20.0415 13.2174C19.8729 13.2387 19.7019 13.231 19.5359 13.1946C19.505 13.1946 19.4821 13.1946 19.4808 13.2295C19.4734 13.2991 19.4707 13.369 19.4727 13.439C19.4792 13.5334 19.4904 13.6275 19.5063 13.7209C19.5332 13.88 19.5332 14.0424 19.5063 14.2015C19.4958 14.341 19.509 14.4813 19.5453 14.6164C19.5815 14.7693 19.5938 14.9269 19.5816 15.0836C19.5654 15.1326 19.5442 15.1798 19.5184 15.2245C19.5047 15.2557 19.5 15.2902 19.505 15.3239C19.5158 15.3856 19.505 15.4286 19.4364 15.4393C19.3793 15.4467 19.3214 15.4467 19.2643 15.4393C19.2509 15.4351 19.2387 15.4278 19.2287 15.418C19.2187 15.4082 19.211 15.3962 19.2065 15.383C19.2065 15.3668 19.2293 15.3333 19.2495 15.3225C19.3051 15.2943 19.3483 15.2465 19.3705 15.1883C19.4017 15.1236 19.4143 15.0516 19.4068 14.9802C19.4028 14.931 19.4028 14.8817 19.4068 14.8325C19.4067 14.637 19.3827 14.4423 19.3356 14.2525C19.3248 14.1854 19.314 14.1183 19.3019 14.0511C19.3046 14.0162 19.2966 13.984 19.2885 13.9505Z" fill="#1F515B"/>
<path d="M17.976 19.0282C17.8414 19.0046 17.7167 18.9417 17.6179 18.8474C17.5191 18.753 17.4505 18.6316 17.4208 18.4983C17.3911 18.3651 17.4017 18.226 17.4512 18.0988C17.5006 17.9715 17.5868 17.8618 17.6988 17.7834C17.8108 17.7051 17.9435 17.6616 18.0802 17.6586C18.2169 17.6556 18.3514 17.6931 18.4667 17.7664C18.582 17.8398 18.673 17.9456 18.7281 18.0705C18.7832 18.1955 18.7999 18.3339 18.7761 18.4684C18.7443 18.6485 18.6422 18.8086 18.4921 18.9136C18.3421 19.0186 18.1565 19.0598 17.976 19.0282ZM18.1549 18.0106C18.0884 17.9994 18.02 18.008 17.9584 18.0354C17.8968 18.0629 17.8446 18.1078 17.8085 18.1647C17.7723 18.2215 17.7538 18.2878 17.7551 18.3551C17.7565 18.4224 17.7777 18.4879 17.8162 18.5432C17.8546 18.5986 17.9085 18.6414 17.9712 18.6663C18.0339 18.6912 18.1025 18.697 18.1686 18.6832C18.2346 18.6693 18.295 18.6363 18.3423 18.5883C18.3897 18.5403 18.4217 18.4794 18.4346 18.4133C18.4431 18.3685 18.4426 18.3224 18.4331 18.2778C18.4236 18.2332 18.4053 18.1909 18.3793 18.1534C18.3532 18.1159 18.32 18.084 18.2815 18.0595C18.2429 18.0349 18.1999 18.0183 18.1549 18.0106Z" fill="#1F515B"/>
<path d="M18.6578 19.4002C18.6127 19.392 18.5726 19.3665 18.5462 19.3291L18.2584 18.9196C18.2362 18.8818 18.229 18.837 18.2384 18.7942C18.2477 18.7514 18.2728 18.7137 18.3087 18.6885C18.3446 18.6633 18.3886 18.6525 18.4321 18.6583C18.4756 18.664 18.5154 18.6859 18.5435 18.7195L18.8299 19.129C18.8431 19.1476 18.8525 19.1686 18.8575 19.1908C18.8625 19.213 18.8631 19.236 18.8593 19.2585C18.8554 19.2809 18.8471 19.3024 18.8349 19.3216C18.8227 19.3409 18.8069 19.3576 18.7882 19.3707C18.7503 19.3971 18.7034 19.4077 18.6578 19.4002Z" fill="#1F515B"/>
<path d="M18.2316 7.04438C18.2128 7.01535 18.2016 6.98207 18.199 6.94759C18.1964 6.91311 18.2026 6.87854 18.2168 6.84703C18.224 6.83564 18.2298 6.82348 18.2343 6.81078C18.2363 6.79294 18.2363 6.77492 18.2343 6.75708H18.1886L18.2249 6.71143C18.2468 6.68808 18.2635 6.66029 18.2737 6.62994C18.2839 6.59959 18.2874 6.5674 18.2841 6.53556C18.282 6.52717 18.282 6.51844 18.2841 6.51005C18.2992 6.39721 18.278 6.2825 18.2235 6.18247C18.2093 6.13878 18.1994 6.09382 18.194 6.04822C18.1872 5.99854 18.1671 5.96364 18.1375 5.96095C18.1079 5.95827 18.0783 5.9878 18.0702 6.03882C18.0537 6.13605 18.0439 6.23428 18.0407 6.33284C18.0344 6.5922 18.0119 6.85091 17.9734 7.10748C17.96 7.2122 17.9533 7.3196 17.9331 7.42298C17.9129 7.51451 17.8855 7.6043 17.8511 7.69149C17.842 7.7198 17.8263 7.74553 17.8052 7.76655C17.7842 7.78756 17.7584 7.80326 17.73 7.81232C17.6655 7.8338 17.6211 7.79486 17.6386 7.72908C17.6483 7.68947 17.6647 7.65179 17.687 7.61765C17.7966 7.45012 17.8593 7.25635 17.8685 7.05647C17.886 6.90744 17.9048 6.75708 17.9196 6.60671C17.9362 6.45154 17.9394 6.29523 17.9291 6.13951C17.9131 6.00832 17.9242 5.87526 17.9617 5.74851C17.9991 5.62176 18.0622 5.50399 18.1469 5.40245C18.2368 5.27946 18.3518 5.17695 18.4844 5.10173C18.5772 5.05608 18.6767 5.02386 18.7735 4.98761C18.8112 4.97284 18.8515 4.9621 18.8892 4.94733C18.9098 4.94048 18.9293 4.93053 18.947 4.9178C18.9612 4.90728 18.9717 4.89244 18.9768 4.8755C18.9818 4.85856 18.9813 4.84043 18.9752 4.82382C18.9707 4.80849 18.9609 4.79519 18.9477 4.78614C18.9345 4.7771 18.9186 4.77286 18.9026 4.77414C18.8421 4.76997 18.7816 4.784 18.7291 4.81442C18.6189 4.87886 18.5947 4.87349 18.5046 4.77549C18.4817 4.74864 18.4602 4.72179 18.436 4.69628C18.4266 4.68841 18.4204 4.67733 18.4187 4.66519C18.4169 4.65304 18.4197 4.64068 18.4266 4.63049C18.4427 4.60529 18.4575 4.57931 18.471 4.55263C18.481 4.53663 18.4844 4.51737 18.4804 4.49892C18.4708 4.48038 18.4669 4.45947 18.469 4.43873C18.4712 4.41799 18.4793 4.39832 18.4925 4.38212C18.525 4.33853 18.5403 4.28454 18.5355 4.23042C18.5367 4.21993 18.539 4.20958 18.5422 4.19954L18.5691 4.22505C18.5841 4.23492 18.6016 4.24018 18.6196 4.24018C18.6375 4.24018 18.655 4.23492 18.67 4.22505C18.6933 4.21175 18.7188 4.20266 18.7453 4.1982C18.7639 4.19319 18.7812 4.18424 18.7961 4.17196C18.8109 4.15969 18.8229 4.14437 18.8313 4.12704C18.873 4.04514 18.8959 4.04246 18.9429 4.12033C18.9634 4.15155 18.9905 4.17786 19.0224 4.19736C19.0542 4.21686 19.09 4.22906 19.1272 4.2331C19.2442 4.25727 19.3598 4.2868 19.4741 4.32037C19.5111 4.33397 19.5446 4.35551 19.5723 4.38347C19.6274 4.43448 19.6758 4.49221 19.7323 4.54189C19.777 4.58081 19.8134 4.62834 19.8392 4.68163C19.8651 4.73491 19.88 4.79286 19.8829 4.85201C19.8963 5.0064 19.9084 5.15945 19.9125 5.31385C19.9145 5.37869 19.909 5.44355 19.8963 5.50717C19.8963 5.52731 19.8762 5.59847 19.9071 5.61189C19.938 5.62532 19.9555 5.58638 19.973 5.57564C19.9873 5.56666 20.0034 5.56103 20.0202 5.55917C20.0369 5.55731 20.0539 5.55927 20.0698 5.5649C20.1357 5.58773 20.1263 5.6186 20.0832 5.65888C20.0402 5.69916 19.9488 5.79313 19.8681 5.80388C19.8068 5.80077 19.7462 5.78948 19.6879 5.77031C19.6879 5.71393 19.7094 5.628 19.6677 5.58101C19.6677 5.5743 19.6435 5.58101 19.6301 5.58101C19.6585 5.55641 19.6773 5.5227 19.6835 5.4857C19.6896 5.44869 19.6826 5.4107 19.6637 5.37829C19.6274 5.39977 19.622 5.43736 19.6099 5.47227C19.5926 5.5524 19.5522 5.62573 19.4936 5.68322C19.4351 5.74071 19.361 5.77985 19.2805 5.79582L19.2347 5.80656V6.10192L19.2065 6.07775C19.205 6.10369 19.2088 6.12965 19.2175 6.1541C19.2263 6.17855 19.24 6.20099 19.2576 6.22006C19.2576 6.28048 19.2899 6.22812 19.2576 6.29122C19.2441 6.33077 19.2215 6.36662 19.1917 6.39594C19.1527 6.43084 19.1057 6.45367 19.0667 6.48723C19.0277 6.52079 19.0317 6.54362 19.0048 6.55704C18.9888 6.56401 18.9707 6.56485 18.9541 6.5594C18.9375 6.55396 18.9235 6.54261 18.9147 6.52751C18.9001 6.50404 18.8947 6.47604 18.8994 6.44882C18.9041 6.42159 18.9186 6.39705 18.9403 6.37983C19.0048 6.33418 19.0613 6.30867 19.0223 6.21738C18.9811 6.12897 18.9649 6.03104 18.9752 5.9341C18.9476 5.93565 18.9209 5.94409 18.8974 5.95863C18.8739 5.97317 18.8544 5.99335 18.8408 6.01734C18.8079 6.07313 18.783 6.13323 18.7668 6.1959C18.752 6.27225 18.7412 6.34933 18.7345 6.42681C18.6996 6.39191 18.6834 6.39594 18.6633 6.44695C18.6627 6.45365 18.6627 6.46039 18.6633 6.46709C18.6431 6.56317 18.6166 6.65781 18.5839 6.75037C18.5516 6.8618 18.6256 6.9786 18.7453 6.9249C18.7964 6.90207 18.7749 6.88596 18.8085 6.86314C18.9147 6.78796 18.9134 6.94772 18.8434 7.00545C18.8031 7.03901 18.7493 7.05781 18.709 7.09272C18.6686 7.12762 18.6444 7.1773 18.5812 7.16521C18.5066 7.14439 18.4307 7.1287 18.354 7.11822C18.2827 7.09809 18.2612 7.09943 18.2316 7.04438Z" fill="#1F515B"/>
<path d="M6.14946 22.0895C6.30913 22.0895 6.43857 21.96 6.43857 21.8004C6.43857 21.6407 6.30913 21.5112 6.14946 21.5112C5.98979 21.5112 5.86035 21.6407 5.86035 21.8004C5.86035 21.96 5.98979 22.0895 6.14946 22.0895Z" fill="#1F515B"/>
<path d="M5.93323 21.3201C6.02903 21.3201 6.1067 21.2424 6.1067 21.1466C6.1067 21.0508 6.02903 20.9731 5.93323 20.9731C5.83743 20.9731 5.75977 21.0508 5.75977 21.1466C5.75977 21.2424 5.83743 21.3201 5.93323 21.3201Z" fill="#1F515B"/>
<path d="M6.74573 22.2327C6.84153 22.2327 6.9192 22.155 6.9192 22.0592C6.9192 21.9634 6.84153 21.8857 6.74573 21.8857C6.64993 21.8857 6.57227 21.9634 6.57227 22.0592C6.57227 22.155 6.64993 22.2327 6.74573 22.2327Z" fill="#1F515B"/>
<path d="M5.63928 22.2093C5.73509 22.2093 5.81275 22.1316 5.81275 22.0358C5.81275 21.94 5.73509 21.8623 5.63928 21.8623C5.54348 21.8623 5.46582 21.94 5.46582 22.0358C5.46582 22.1316 5.54348 22.2093 5.63928 22.2093Z" fill="#1F515B"/>
<path d="M6.13194 21.7694L5.65039 21.9871L5.68427 22.0618L6.16582 21.8441L6.13194 21.7694Z" fill="#1F515B"/>
<path d="M6.16517 21.7639L6.13184 21.8389L6.7293 22.1037L6.76263 22.0287L6.16517 21.7639Z" fill="#1F515B"/>
<path d="M5.9901 21.1894L5.91211 21.2148L6.11105 21.8232L6.18904 21.7978L5.9901 21.1894Z" fill="#1F515B"/>
<path d="M21.2165 12.2458C21.2097 11.9773 21.2447 11.5262 20.9838 11.349C20.7929 11.2147 20.5428 11.2308 20.3464 11.1221C20.259 11.0737 20.1125 10.8938 20.2779 10.8267C20.4016 10.7757 20.5226 10.961 20.6369 10.9301C20.7512 10.8992 20.6369 10.7958 20.575 10.7488C20.365 10.5824 20.1996 10.3665 20.0936 10.1205C20.0057 9.94018 19.9908 9.73296 20.052 9.5419C20.138 9.32709 20.3209 9.31367 20.4849 9.46672C20.5441 9.52311 20.6006 9.61306 20.6974 9.58621C20.8816 9.53519 20.7741 9.362 20.6974 9.28816C20.5966 9.19418 20.3438 9.12974 20.3074 8.98743C20.2604 8.80887 20.4016 8.84109 20.5011 8.89614C20.6006 8.95118 20.6598 8.95253 20.6221 8.83438C20.5845 8.71624 20.4379 8.65851 20.3599 8.59675C20.1958 8.4625 20.0251 8.3457 19.8664 8.20742C19.684 8.06157 19.5272 7.88644 19.4025 7.68919C19.3554 7.60327 19.2411 7.20588 19.4361 7.20588C19.5544 7.20588 19.5988 7.43948 19.705 7.47439C19.9914 7.57105 19.6808 6.95885 19.6687 6.88501C19.6566 6.81117 19.6687 6.62993 19.7682 6.69974C19.8072 6.72793 19.8018 6.96825 19.9027 6.89575C19.9323 6.87427 19.9121 6.79103 19.9027 6.7615C19.8785 6.59368 19.8126 6.43929 19.9148 6.28758C20.0213 6.16896 20.1344 6.05645 20.2537 5.9506C20.329 5.86199 20.4473 5.74117 20.454 5.62302C20.4607 5.50488 20.3545 5.41224 20.4433 5.29813C20.5925 5.10749 20.8373 5.7895 20.8709 5.87408C21.0015 6.2217 21.097 6.5815 21.1559 6.94811C21.2837 7.68919 21.3039 8.44236 21.3657 9.19016C21.4034 9.78744 21.4034 10.3865 21.3657 10.9838C21.3536 11.2523 21.5432 12.2538 21.1775 12.3706C21.1802 12.3196 21.1533 12.2726 21.2165 12.2458Z" fill="#1F515B"/>
<path d="M18.5233 23.5532C18.4448 23.78 18.4313 24.0241 18.4843 24.2581C18.2128 24.2726 17.944 24.1982 17.7188 24.0463C17.4936 23.8944 17.3242 23.6731 17.2364 23.4163C17.153 23.1625 17.1369 22.8403 17.3924 22.6806C17.6479 22.5208 17.8657 22.7531 17.9921 22.9491C17.9753 22.8486 17.9926 22.7453 18.0413 22.6558C18.0901 22.5663 18.1674 22.4956 18.261 22.455C18.5555 22.3516 18.7048 22.6094 18.6994 22.8685C18.6769 23.1045 18.6175 23.3356 18.5233 23.5532Z" fill="#1F515B"/>
<path d="M19.0531 25.1865C19.0168 25.1476 18.9187 25.0778 18.9066 25.0281C18.8824 24.9489 18.9671 24.9234 19.0316 24.9422C19.0841 24.966 19.1349 24.9934 19.1836 25.0241C19.2372 25.044 19.2947 25.0513 19.3517 25.0456C19.4592 25.0456 19.5601 25.0456 19.6636 25.055C19.7672 25.0644 19.7295 25.0295 19.6865 24.957C19.5906 24.7389 19.5749 24.4941 19.6421 24.2656C19.7044 24.0424 19.8484 23.8507 20.0455 23.7285C20.1611 23.6529 20.293 23.6058 20.4304 23.591C20.5678 23.5762 20.7067 23.5942 20.8357 23.6434C20.9648 23.6927 21.0803 23.7719 21.1727 23.8745C21.2651 23.977 21.3319 24.1 21.3674 24.2333C21.3919 24.3173 21.3961 24.406 21.3795 24.4919C21.3629 24.5778 21.326 24.6585 21.2719 24.7274C21.2204 24.7912 21.1501 24.8373 21.0711 24.8593C20.992 24.8813 20.908 24.8781 20.8309 24.8502C20.7537 24.8222 20.6872 24.7709 20.6407 24.7034C20.5942 24.6359 20.5699 24.5556 20.5713 24.4737C20.5703 24.4457 20.5775 24.4181 20.5921 24.3942C20.6066 24.3703 20.628 24.3513 20.6533 24.3394C20.6765 24.3288 20.7026 24.3266 20.7271 24.3333C20.7517 24.3399 20.7732 24.3549 20.7878 24.3756C20.812 24.4159 20.7999 24.4293 20.7878 24.4656C20.7878 24.4656 20.7421 24.5287 20.7623 24.5314C20.8443 24.5435 20.8873 24.4481 20.8671 24.3824C20.8523 24.3428 20.8256 24.3087 20.7908 24.2847C20.7559 24.2606 20.7145 24.2479 20.6722 24.2481C20.6292 24.2465 20.5868 24.2587 20.5513 24.2828C20.5157 24.307 20.4888 24.3419 20.4745 24.3824C20.443 24.4687 20.4391 24.5626 20.4631 24.6513C20.4872 24.74 20.5381 24.8191 20.609 24.8778C20.6668 24.9292 20.7344 24.9686 20.8077 24.9935C20.8811 25.0184 20.9587 25.0283 21.0359 25.0227C21.1132 25.017 21.1885 24.996 21.2575 24.9607C21.3264 24.9254 21.3876 24.8767 21.4373 24.8173C21.6242 24.6119 21.6148 24.381 21.5112 24.1461C21.4807 24.0918 21.447 24.0394 21.4104 23.989C21.4054 23.9818 21.402 23.9737 21.4004 23.9652C21.3987 23.9566 21.399 23.9478 21.401 23.9393C21.4063 23.9307 21.4133 23.9232 21.4216 23.9174C21.43 23.9116 21.4394 23.9077 21.4494 23.9058C21.4615 23.9058 21.483 23.9232 21.4897 23.938C21.547 24.0582 21.614 24.1736 21.6901 24.283C21.7762 24.3931 21.9362 24.4643 21.9953 24.275C22.0074 24.2333 22.0222 24.1917 22.0303 24.1488C22.0384 24.1058 22.0222 24.0682 22.0303 24.0306C22.0323 24.0095 22.0413 23.9897 22.0558 23.9742C22.065 23.9709 22.0748 23.97 22.0844 23.9714C22.094 23.9728 22.1032 23.9765 22.111 23.9823C22.158 24.0266 22.111 24.1689 22.1231 24.2293C22.1501 24.3181 22.1838 24.4047 22.2239 24.4884C22.262 24.5969 22.2722 24.7133 22.2535 24.8267C22.2215 25.0105 22.1511 25.1854 22.0468 25.3402C21.9425 25.4949 21.8068 25.626 21.6484 25.7249C21.1562 26.074 20.3938 26.0364 19.8721 25.7759C19.5749 25.6427 19.3074 25.4514 19.0854 25.2134L19.0531 25.1865Z" fill="#1F515B"/>
<path d="M5.81223 1.87883C5.81895 1.86406 5.83375 1.84526 5.83106 1.83184C5.82182 1.7604 5.79452 1.69248 5.75172 1.63448C5.70751 1.58521 5.64991 1.54984 5.58592 1.53267C5.52193 1.51551 5.45433 1.5173 5.39134 1.53782C5.32904 1.55288 5.2729 1.58674 5.23056 1.63478C5.18821 1.68282 5.16172 1.74272 5.15468 1.80633C5.13543 1.93921 5.16351 2.07462 5.23401 2.18895C5.26629 2.244 5.30528 2.29501 5.3389 2.35006C5.36231 2.38722 5.38342 2.42578 5.4021 2.46552C5.40836 2.47898 5.4116 2.49364 5.4116 2.50848C5.4116 2.52332 5.40836 2.53798 5.4021 2.55144C5.37252 2.5219 5.34697 2.49371 5.31738 2.46686C5.26954 2.42478 5.21322 2.39342 5.15221 2.3749C5.09121 2.35637 5.02694 2.35111 4.96373 2.35946C4.80587 2.37976 4.65538 2.4383 4.52536 2.52996C4.40299 2.60917 4.28332 2.69241 4.16364 2.7743C3.98019 2.89609 3.76242 2.95585 3.54239 2.94481C3.53482 2.94355 3.5271 2.94355 3.51953 2.94481C3.59763 2.98186 3.67975 3.00979 3.76427 3.02804C3.84764 3.04281 3.93235 3.05087 4.01303 3.06161L3.86377 3.07369L3.88394 3.08443C4.14817 3.21998 4.44218 3.28736 4.73917 3.28044C4.92075 3.28088 5.1016 3.2574 5.27704 3.21063C5.41595 3.17656 5.54638 3.11442 5.66028 3.02804C5.74014 2.9709 5.79535 2.88568 5.81481 2.78953C5.83427 2.69338 5.81654 2.59344 5.76517 2.50982C5.72092 2.43795 5.67101 2.36971 5.61591 2.30576C5.56077 2.23594 5.49892 2.1715 5.44513 2.099C5.39179 2.03306 5.3641 1.95011 5.36714 1.8654C5.36467 1.84607 5.36812 1.82645 5.37702 1.80911C5.38592 1.79176 5.39986 1.77751 5.41702 1.76822C5.43418 1.75893 5.45375 1.75503 5.47316 1.75704C5.49258 1.75905 5.51093 1.76687 5.52581 1.77948C5.56455 1.80531 5.60019 1.83549 5.63204 1.86943C5.6524 1.88875 5.66924 1.91147 5.6818 1.93656C5.71403 2.00225 5.75986 2.06037 5.81627 2.10706C5.8445 2.12585 5.86736 2.11511 5.86736 2.08155C5.86575 2.06333 5.86074 2.04557 5.85257 2.02919C5.83375 1.97952 5.81358 1.93119 5.79341 1.88151L5.81223 1.87883Z" fill="#1F515B"/>
<path d="M4.93943 7.01145C4.95019 7.02488 4.93943 7.04502 4.91388 7.07589C4.742 7.2343 4.51577 7.3208 4.28188 7.31755C3.97944 7.30928 3.68339 7.22871 3.41858 7.08261C3.389 7.06784 3.33387 7.04636 3.31235 7.08261C3.30768 7.09884 3.30768 7.11605 3.31235 7.13228C3.33018 7.24235 3.38696 7.34238 3.47237 7.41421C3.55574 7.50685 3.35807 7.48 3.31639 7.4706C3.15759 7.44512 3.00828 7.37846 2.8834 7.27728C2.8118 7.20965 2.75913 7.12453 2.73059 7.03035C2.70206 6.93616 2.69864 6.83617 2.72069 6.74026C2.77337 6.57046 2.87829 6.42155 3.02056 6.31467C3.15502 6.20056 3.30698 6.10792 3.43875 5.99112C3.57558 5.87882 3.67035 5.72363 3.70769 5.55077C3.72618 5.46386 3.71537 5.3733 3.67694 5.29317C3.63851 5.21304 3.57463 5.14784 3.49523 5.10773C3.55098 5.21526 3.57442 5.33658 3.56273 5.4571C3.55104 5.57762 3.50472 5.6922 3.42934 5.78705C3.21285 6.05556 2.79734 6.11732 2.64673 6.42073C2.62522 6.46504 2.60505 6.51605 2.55933 6.53216C2.52609 6.54033 2.49098 6.53553 2.46116 6.51874C2.38158 6.48212 2.31406 6.42369 2.26645 6.35025C2.21883 6.27681 2.1931 6.19137 2.19223 6.10389C2.24164 6.12393 2.29454 6.13398 2.34787 6.13347C2.4012 6.13296 2.4539 6.1219 2.50292 6.10093C2.55194 6.07995 2.59631 6.04948 2.63346 6.01127C2.67061 5.97307 2.6998 5.92789 2.71934 5.87835C2.73285 5.8572 2.74084 5.83302 2.74259 5.808C2.74435 5.78298 2.7398 5.75792 2.72938 5.73511C2.71895 5.71229 2.70298 5.69244 2.68291 5.67736C2.66284 5.66228 2.63931 5.65245 2.61446 5.64877C2.55969 5.63903 2.50352 5.6404 2.44929 5.6528C2.39507 5.6652 2.3439 5.68838 2.29885 5.72096C2.25379 5.75354 2.21577 5.79485 2.18706 5.84241C2.15834 5.88998 2.13952 5.94284 2.13171 5.99783C2.13171 6.02334 1.86278 5.91728 1.84798 5.9052C1.75793 5.84882 1.68203 5.77258 1.62611 5.68234C1.55888 5.57762 1.60997 5.51318 1.68259 5.42457C1.75982 5.34316 1.83083 5.2561 1.89505 5.16412C1.94211 5.08222 1.96632 4.98958 2.01069 4.90635C2.12096 4.69557 2.34821 4.56937 2.4773 4.36933C2.55933 4.23508 2.59832 4.08874 2.67094 3.95448C2.74861 3.81417 2.86173 3.6966 2.99904 3.61348C3.09227 3.55232 3.19632 3.50949 3.30563 3.48728C3.34732 3.48728 3.41724 3.47788 3.4401 3.51816C3.46296 3.55843 3.41321 3.65241 3.37152 3.68866C3.32983 3.72491 3.25184 3.82292 3.30563 3.87393C3.38225 3.81174 3.46363 3.75563 3.54902 3.70611C3.73521 3.60854 3.94407 3.5622 4.15413 3.57186C4.2133 3.57186 4.39752 3.57186 4.40828 3.6551C4.42307 3.77861 4.12186 3.74505 4.13127 3.90347C4.35658 3.84895 4.59306 3.86289 4.81038 3.9435C5.02769 4.02412 5.21592 4.16773 5.35091 4.3559C5.37377 4.38813 5.39394 4.44988 5.34015 4.46465C5.28636 4.47942 5.19627 4.41632 5.14651 4.40692C5.10821 4.39694 5.06782 4.39836 5.03031 4.411C4.9928 4.42365 4.95981 4.44696 4.9354 4.47808C5.18368 4.60101 5.41925 4.74806 5.63867 4.91709C5.66422 4.93722 5.69246 4.96945 5.67498 4.9963C5.66598 5.00707 5.6537 5.01461 5.64002 5.01778L5.48 5.07282C5.63307 5.16352 5.76289 5.28854 5.8592 5.43799C5.8861 5.47961 5.90895 5.53734 5.87668 5.57225C5.85607 5.59014 5.83001 5.60055 5.80272 5.60178C5.6226 5.61915 5.44519 5.65791 5.27426 5.71724C5.23392 5.73469 5.164 5.76423 5.17206 5.81928C5.17609 5.8376 5.186 5.8541 5.2003 5.86626C5.25023 5.91461 5.31293 5.94774 5.38104 5.96177C5.44916 5.9758 5.51987 5.97014 5.58488 5.94547C5.66825 5.91191 5.57547 6.15357 5.56202 6.18176C5.49708 6.32846 5.39829 6.45772 5.27372 6.55899C5.14915 6.66026 5.00234 6.73066 4.8453 6.76443C4.76505 6.77899 4.68329 6.7835 4.60191 6.77785C4.56426 6.77785 4.39214 6.74966 4.40021 6.81813C4.40306 6.83277 4.41006 6.84628 4.42038 6.85706C4.48503 6.93088 4.57444 6.97862 4.67184 6.99131C4.73235 6.99669 4.90044 6.95909 4.93943 7.01145ZM2.40065 4.98153C2.40601 4.98604 2.41223 4.98944 2.41892 4.99152C2.42562 4.99359 2.43267 4.9943 2.43965 4.99361C2.50554 4.99361 2.49882 4.92246 2.54857 4.905C2.57681 4.89426 2.62118 4.905 2.64539 4.88621C2.69783 4.84593 2.63463 4.82579 2.59429 4.82311C2.56011 4.82161 2.52603 4.82783 2.4946 4.84132C2.46317 4.8548 2.43519 4.87519 2.41275 4.90098C2.39124 4.92649 2.38183 4.96273 2.40065 4.98153Z" fill="#1F515B"/>
<path d="M5.52509 3.60882C5.49666 3.69259 5.48973 3.78214 5.50492 3.86927C5.55184 4.09347 5.67145 4.29598 5.84525 4.44548C6.01905 4.59497 6.23735 4.68312 6.46637 4.69628C6.7138 4.7191 7.01635 4.61304 7.09435 4.35796C7.0284 4.35345 6.9622 4.36165 6.89937 4.38212C6.76835 4.38936 6.63769 4.36253 6.52016 4.30426C6.36187 4.2297 6.22013 4.12425 6.10331 3.99413C6.02397 3.91492 5.95136 3.83034 5.87068 3.75247C5.81554 3.69877 5.74562 3.58465 5.6757 3.55109C5.66268 3.54185 5.64758 3.53597 5.63173 3.53397C5.61589 3.53197 5.59979 3.53391 5.58488 3.53963C5.56997 3.54534 5.55671 3.55465 5.54628 3.56672C5.53585 3.5788 5.52857 3.59326 5.52509 3.60882Z" fill="#1F515B"/>
<path d="M5.87213 3.55642C5.87213 3.59804 5.93399 3.65845 5.96626 3.69067C6.07059 3.79398 6.18154 3.8904 6.2984 3.97932C6.42848 4.07744 6.57324 4.15446 6.72736 4.20755C6.78653 4.22366 6.9331 4.25991 6.96537 4.1901C6.98823 4.14311 6.93982 4.08807 6.91158 4.05585C6.75291 3.88131 6.48397 3.77525 6.27151 3.68262C6.18948 3.64771 5.99047 3.48661 5.89768 3.52286C5.8901 3.52445 5.88334 3.52872 5.87865 3.53489C5.87396 3.54105 5.87164 3.54869 5.87213 3.55642Z" fill="#1F515B"/>
<path d="M6.59263 3.16979C6.80103 3.30662 7.05059 3.36689 7.29859 3.34029C7.4264 3.32345 7.54505 3.26493 7.63611 3.17382C7.65123 3.15945 7.66144 3.14071 7.6653 3.12023C7.66916 3.09975 7.66648 3.07857 7.65762 3.0597C7.64552 3.01808 7.61056 3.01137 7.5756 3.00869C7.37134 2.99289 7.17104 2.94392 6.98259 2.86369C6.82416 2.79854 6.69228 2.68209 6.60813 2.53307C6.52399 2.38405 6.49248 2.21111 6.51867 2.04206C6.52356 2.01155 6.53454 1.98233 6.55094 1.95613C6.58053 1.90109 6.61549 1.84739 6.64642 1.791C6.65577 1.77551 6.6613 1.75803 6.66255 1.73998C6.66564 1.71773 6.66053 1.69511 6.64816 1.67634C6.63579 1.65757 6.61701 1.64393 6.59532 1.63795C6.57506 1.63764 6.55518 1.64335 6.53818 1.65434C6.52118 1.66534 6.50784 1.68113 6.49984 1.69971C6.47429 1.75744 6.4474 1.81382 6.4232 1.87155C6.39401 1.93764 6.34757 1.99467 6.28873 2.03669C6.21443 2.09445 6.15956 2.17347 6.13145 2.26319C6.10334 2.35291 6.10332 2.44906 6.1314 2.5388C6.17486 2.71801 6.26808 2.88134 6.40034 3.01003C6.47564 3.07716 6.55229 3.13489 6.59263 3.16979Z" fill="#1F515B"/>
<path d="M6.56634 2.09033C6.55495 2.22185 6.57764 2.35407 6.63224 2.4743C6.70072 2.62551 6.82287 2.74604 6.97513 2.81262L7.00606 2.82604C7.05887 2.85554 7.11738 2.87343 7.17767 2.87852C7.23797 2.88362 7.29866 2.8758 7.35568 2.85558C7.48277 2.83139 7.59687 2.76228 7.67706 2.66091C7.70304 2.62645 7.72304 2.58787 7.73623 2.5468C7.73881 2.53485 7.73833 2.52245 7.73483 2.51074C7.73133 2.49904 7.72492 2.4884 7.7162 2.47983C7.70748 2.47126 7.69673 2.46503 7.68495 2.46171C7.67317 2.4584 7.66074 2.45811 7.64882 2.46087C7.5668 2.47564 7.48611 2.49981 7.40409 2.51189C7.26461 2.53725 7.12119 2.53082 6.98454 2.49309C6.89739 2.46551 6.81762 2.41856 6.75124 2.35578C6.68487 2.29299 6.63361 2.21601 6.60131 2.13061L6.58517 2.09033H6.56634Z" fill="#1F515B"/>
<path d="M13.1464 17.8613C13.11 17.8145 13.0851 17.7597 13.0738 17.7016C13.0643 17.6224 13.0832 17.5418 13.0738 17.4626C13.0742 17.4057 13.0556 17.3503 13.0211 17.3051C12.9865 17.2599 12.9379 17.2275 12.8828 17.2129C12.9406 17.1954 12.9864 17.229 13.0388 17.2491C13.0406 17.2294 13.0478 17.2106 13.0597 17.1947C13.0716 17.1788 13.0876 17.1665 13.106 17.1592C13.0307 17.2814 13.1491 17.3955 13.1975 17.4988C13.2302 17.5621 13.2451 17.6331 13.2405 17.7043C13.2286 17.7716 13.2054 17.8365 13.1719 17.8962C13.1621 17.8856 13.1536 17.8739 13.1464 17.8613Z" fill="#1F515B"/>
<path d="M13.2525 16.3274C13.2452 16.3395 13.2371 16.3512 13.2283 16.3623C13.2239 16.3578 13.2187 16.3543 13.2129 16.3519C13.2071 16.3494 13.2009 16.3482 13.1947 16.3482C13.1884 16.3482 13.1822 16.3494 13.1764 16.3519C13.1706 16.3543 13.1654 16.3578 13.161 16.3623C13.1651 16.3609 13.1694 16.3604 13.1737 16.3608C13.178 16.3612 13.1821 16.3625 13.1858 16.3647C13.1896 16.3669 13.1927 16.3698 13.1952 16.3734C13.1976 16.3769 13.1993 16.3809 13.2 16.3852C13.2108 16.4296 13.1543 16.4484 13.1288 16.4712C13.09 16.5091 13.0602 16.555 13.0414 16.6057C13.0172 16.6716 13.0561 16.7281 13.1288 16.7052C13.2014 16.6824 13.235 16.5708 13.231 16.4968C13.2269 16.4228 13.2552 16.3166 13.3211 16.2937C13.3076 16.2926 13.2942 16.2951 13.2821 16.301C13.27 16.3069 13.2598 16.316 13.2525 16.3274Z" fill="#1F515B"/>
<path d="M13.0979 16.1596C13.0686 16.1878 13.0412 16.2178 13.0158 16.2496C12.8652 16.4335 12.9473 16.6631 12.9486 16.8779C12.9486 17.1128 12.7657 17.043 12.7173 16.851C12.6914 16.7408 12.695 16.6256 12.7278 16.5172C12.7606 16.4088 12.8215 16.3109 12.9042 16.2334C12.9865 16.1741 13.0618 16.1056 13.1288 16.0294C13.1584 15.9878 13.2458 15.8374 13.2068 15.7864C13.2316 15.8135 13.2502 15.8457 13.2614 15.8807C13.2725 15.9157 13.2759 15.9527 13.2713 15.9891C13.3101 15.9877 13.348 16.0006 13.3777 16.0254C13.4075 16.0502 13.4271 16.0851 13.4327 16.1234C13.3412 15.977 13.2001 16.0562 13.0979 16.1596Z" fill="#1F515B"/>
<path d="M12.7469 19.8475C12.7579 19.8419 12.7683 19.8352 12.7778 19.8274C12.8021 19.8019 12.8303 19.7361 12.8693 19.7361C12.9083 19.7361 12.9365 19.7683 12.9648 19.7844C12.993 19.8005 13.0683 19.8019 13.0374 19.8354C13.0064 19.869 12.9863 19.8583 12.9688 19.8703L12.872 19.9321C12.8572 19.9415 12.8397 19.9495 12.8236 19.9576C12.7939 19.9748 12.7594 19.9819 12.7254 19.9777C12.7106 19.9777 12.7052 19.9777 12.7012 19.9952C12.6588 20.1243 12.5764 20.2367 12.4659 20.3161C12.4207 20.3445 12.3735 20.3697 12.3247 20.3912C12.3529 20.4168 12.3839 20.4114 12.4202 20.4181C12.4643 20.4295 12.5105 20.4295 12.5546 20.4181C12.5829 20.41 12.6595 20.3792 12.677 20.4181C12.6945 20.457 12.6582 20.4799 12.6434 20.4946C12.6049 20.5278 12.5586 20.5509 12.5089 20.5617C12.4134 20.5926 12.2548 20.6222 12.1821 20.5295C12.159 20.4971 12.1434 20.46 12.1364 20.4208C12.1363 20.4183 12.1356 20.4159 12.1345 20.4137C12.1334 20.4115 12.1319 20.4095 12.13 20.4079C12.1281 20.4062 12.1259 20.405 12.1236 20.4042C12.1212 20.4035 12.1187 20.4031 12.1163 20.4033C12.0693 20.3974 12.0238 20.3833 11.9818 20.3617C11.9761 20.3602 11.97 20.3602 11.9643 20.3617C11.9313 20.3649 11.9006 20.3802 11.8782 20.4047C11.8554 20.4342 11.8433 20.4718 11.8177 20.4986C11.7906 20.5276 11.7547 20.5469 11.7155 20.5537C11.6819 20.5617 11.5811 20.5846 11.5703 20.5376C11.5703 20.5188 11.5797 20.4933 11.5851 20.4758C11.5908 20.4454 11.5998 20.4157 11.612 20.3872C11.6396 20.3434 11.6821 20.311 11.7317 20.2959C11.7572 20.2879 11.7774 20.2959 11.7962 20.2691C11.8129 20.25 11.8253 20.2276 11.8325 20.2033C11.8345 20.1963 11.8345 20.1888 11.8325 20.1818C11.8161 20.1344 11.8097 20.0841 11.8137 20.0341C11.8137 20.0234 11.8137 20.0194 11.8016 20.014C11.7722 19.9969 11.744 19.9781 11.7169 19.9576C11.6949 19.94 11.6773 19.9174 11.6656 19.8918C11.654 19.8661 11.6485 19.8381 11.6496 19.8099C11.6478 19.7484 11.6569 19.687 11.6765 19.6287C11.6846 19.5978 11.694 19.5441 11.7236 19.524C11.728 19.52 11.7333 19.5171 11.739 19.5155C11.7447 19.5139 11.7507 19.5136 11.7565 19.5146C11.7623 19.5156 11.7678 19.518 11.7726 19.5215C11.7774 19.525 11.7813 19.5295 11.7841 19.5347C11.807 19.5911 11.7626 19.6609 11.7841 19.72C11.7953 19.75 11.8132 19.7771 11.8366 19.7992C11.8508 19.8143 11.8625 19.8315 11.8715 19.8502C11.8932 19.8264 11.9122 19.8003 11.928 19.7723C11.9498 19.7454 11.9741 19.7207 12.0006 19.6985C12.0549 19.6544 12.1157 19.6191 12.1808 19.5938C12.2344 19.5742 12.2892 19.5581 12.3449 19.5454C12.357 19.5454 12.3623 19.5374 12.3637 19.5253C12.3655 19.49 12.3792 19.4564 12.4027 19.43C12.4269 19.4018 12.5519 19.2232 12.5963 19.2742C12.6084 19.289 12.603 19.3199 12.6057 19.3373C12.6186 19.3679 12.621 19.4019 12.6125 19.434C12.5977 19.4635 12.5479 19.4837 12.521 19.5011C12.5147 19.5039 12.5094 19.5084 12.5056 19.5141C12.5018 19.5198 12.4997 19.5265 12.4995 19.5334H12.5197C12.5602 19.5388 12.6011 19.5415 12.642 19.5414C12.6676 19.5414 12.712 19.5334 12.7281 19.5602C12.7442 19.5871 12.673 19.5938 12.681 19.6179C12.6891 19.6421 12.7483 19.5871 12.7671 19.6072C12.7859 19.6273 12.7778 19.6609 12.7671 19.6837C12.7608 19.7178 12.7572 19.7524 12.7563 19.7871C12.7563 19.8059 12.7563 19.826 12.7483 19.8448L12.7469 19.8475Z" fill="#1F515B"/>
<path d="M16.3092 20.1549C16.2799 20.1569 16.2505 20.1517 16.2237 20.1396C16.1969 20.1276 16.1736 20.109 16.1557 20.0857C16.1379 20.0624 16.1261 20.035 16.1214 20.006C16.1167 19.977 16.1193 19.9473 16.129 19.9195C16.1653 19.831 16.2104 19.7463 16.2634 19.6667C16.2876 19.6264 16.324 19.6344 16.3455 19.6667C16.3973 19.7452 16.4423 19.828 16.4799 19.9142C16.49 19.9414 16.4933 19.9707 16.4894 19.9996C16.4856 20.0284 16.4748 20.0558 16.458 20.0795C16.4412 20.1032 16.4188 20.1225 16.3929 20.1356C16.367 20.1487 16.3382 20.1554 16.3092 20.1549Z" fill="#1F515B"/>
<path d="M17.1465 17.9942C17.1225 17.9626 17.0896 17.9388 17.0519 17.9261C17.0142 17.9134 16.9736 17.9124 16.9353 17.9231C16.897 17.9341 16.8632 17.9571 16.8389 17.9888C16.8147 18.0205 16.8014 18.0591 16.8009 18.099C16.7847 18.2507 16.7605 18.2654 16.614 18.2211C16.5823 18.2106 16.5478 18.2121 16.5173 18.2255C16.4867 18.2389 16.4622 18.2632 16.4486 18.2936C16.4356 18.3245 16.4346 18.359 16.4457 18.3906C16.4569 18.4221 16.4795 18.4484 16.5091 18.4641L16.5656 18.4923C16.5513 18.5104 16.5387 18.5297 16.5279 18.5501C16.4499 18.7219 16.3719 18.8924 16.2953 19.0643C16.255 19.1478 16.2365 19.2402 16.2415 19.3328C16.2462 19.385 16.2462 19.4376 16.2415 19.4898C16.2355 19.5156 16.238 19.5426 16.2486 19.5668C16.2593 19.591 16.2776 19.6111 16.3007 19.6241C16.3271 19.6352 16.3566 19.6365 16.3839 19.6279C16.4112 19.6193 16.4346 19.6013 16.4499 19.5771C16.473 19.5447 16.5006 19.5158 16.5319 19.4912C16.6218 19.4329 16.6917 19.3486 16.7323 19.2495C16.8036 19.0898 16.8775 18.9313 16.9474 18.7716C16.9604 18.7378 16.9712 18.7033 16.9797 18.6682L17.0402 18.6924C17.0724 18.7046 17.1081 18.704 17.1398 18.6908C17.1716 18.6775 17.1971 18.6526 17.211 18.6212C17.224 18.5904 17.225 18.5558 17.2138 18.5243C17.2026 18.4927 17.1801 18.4665 17.1505 18.4507L17.1142 18.4333C17.0982 18.4268 17.0841 18.4163 17.0734 18.4027C17.0626 18.3891 17.0556 18.373 17.0531 18.356C17.0505 18.3389 17.0524 18.3214 17.0587 18.3053C17.0649 18.2892 17.0752 18.275 17.0886 18.2641C17.1108 18.244 17.1306 18.2215 17.1478 18.197C17.1704 18.1679 17.1826 18.1321 17.1823 18.0954C17.1821 18.0586 17.1694 18.023 17.1465 17.9942ZM16.7995 18.8776C16.7444 18.9985 16.6933 19.122 16.6328 19.2401C16.6029 19.2991 16.5634 19.3526 16.5158 19.3985C16.4674 19.4442 16.4042 19.4214 16.3813 19.3408C16.3817 19.2991 16.3876 19.2575 16.3988 19.2173C16.4539 19.083 16.5171 18.9488 16.579 18.8065C16.5898 18.7945 16.6046 18.7868 16.6207 18.785C16.6543 18.783 16.688 18.783 16.7215 18.785C16.751 18.7827 16.7806 18.7878 16.8076 18.7998C16.8318 18.8172 16.8116 18.8508 16.7995 18.8776Z" fill="#1F515B"/>
<path d="M5.88372 15.2377C5.83915 15.231 5.79382 15.231 5.74925 15.2377C5.57904 15.2812 5.42585 15.3747 5.30954 15.5062C5.18583 15.6257 5.0406 15.7613 5.05808 15.9492C5.06407 16.027 5.0913 16.1017 5.13682 16.1651C5.18234 16.2286 5.2444 16.2783 5.31626 16.309C5.50317 16.3788 5.68605 16.2741 5.82993 16.1614C5.91547 16.0824 6.00771 16.011 6.10559 15.9479C6.15725 15.9193 6.21472 15.9028 6.27368 15.8996C6.30999 15.8996 6.40815 15.9291 6.44042 15.8996C6.4727 15.87 6.40815 15.8391 6.38529 15.8271C6.25082 15.7573 6.19703 15.5827 6.15266 15.4471C6.13099 15.3912 6.09453 15.3422 6.04717 15.3053C5.99981 15.2684 5.94333 15.2451 5.88372 15.2377Z" fill="#1F515B"/>
<path d="M6.35474 15.3285L6.34129 15.3218C6.30898 15.2793 6.28648 15.2303 6.2754 15.1781C6.25831 15.1251 6.24836 15.07 6.24582 15.0143C6.2422 14.9586 6.25261 14.9029 6.2761 14.8522C6.29959 14.8016 6.33541 14.7576 6.38029 14.7243C6.51476 14.6209 6.7837 14.5901 6.87513 14.7619L6.88455 14.7794C6.95447 14.9136 6.83883 14.9969 6.71915 15.0385C6.62099 15.0734 6.3655 15.0908 6.37088 15.2264C6.37088 15.2519 6.3897 15.2788 6.38836 15.3016C6.38701 15.3244 6.36953 15.3325 6.35474 15.3285Z" fill="#1F515B"/>
<path d="M6.15018 25.1537C5.9835 25.1417 5.82189 25.0911 5.67819 25.0058C5.62844 24.9816 5.58003 24.9574 5.53296 24.9385C5.34131 24.8574 5.13133 24.8296 4.92516 24.8578C4.90894 24.8597 4.89251 24.8583 4.87687 24.8536C4.86122 24.8489 4.84668 24.8412 4.83411 24.8307C4.82155 24.8203 4.81123 24.8074 4.80377 24.7929C4.7963 24.7784 4.79186 24.7625 4.79069 24.7462C4.78902 24.7301 4.79056 24.7139 4.79521 24.6984C4.79986 24.6829 4.80753 24.6685 4.81778 24.656C4.82804 24.6435 4.84067 24.6331 4.85494 24.6255C4.86922 24.618 4.88486 24.6133 4.90096 24.6117C5.14698 24.5799 5.39707 24.6137 5.62575 24.7099C5.68088 24.7328 5.73467 24.7583 5.78577 24.7852C5.91333 24.8694 6.06491 24.9095 6.21741 24.8995C6.24968 24.8915 6.28599 24.8794 6.32364 24.8673C6.39537 24.8403 6.4705 24.8236 6.54686 24.8175C6.56302 24.8166 6.5792 24.819 6.59441 24.8245C6.60963 24.83 6.62357 24.8386 6.63538 24.8496C6.6472 24.8607 6.65665 24.874 6.66316 24.8888C6.66967 24.9037 6.67311 24.9197 6.67326 24.9358C6.6738 24.9519 6.67117 24.9679 6.66551 24.983C6.65985 24.998 6.65129 25.0118 6.6403 25.0236C6.62931 25.0353 6.61611 25.0448 6.60146 25.0514C6.58681 25.058 6.571 25.0617 6.55493 25.0622C6.50189 25.0684 6.44989 25.0815 6.40029 25.1012C6.35622 25.1163 6.31132 25.1289 6.26582 25.1389C6.22791 25.1479 6.18914 25.1529 6.15018 25.1537Z" fill="#1F515B"/>
<path d="M3.15076 24.4061C3.10204 24.4063 3.05341 24.4018 3.00554 24.3927C2.82489 24.3545 2.66541 24.2495 2.5591 24.0987C2.52131 24.0513 2.48043 24.0065 2.43673 23.9645C2.41584 23.9417 2.40427 23.9119 2.4043 23.881C2.40433 23.8501 2.41596 23.8203 2.4369 23.7975C2.45784 23.7748 2.48656 23.7607 2.5174 23.758C2.54823 23.7554 2.57895 23.7644 2.60347 23.7832C2.65423 23.8306 2.70184 23.8813 2.74601 23.9349C2.81657 24.0423 2.92593 24.1183 3.05125 24.147C3.14446 24.1603 3.23909 24.1603 3.3323 24.147C3.3807 24.147 3.42911 24.1363 3.47887 24.1336C3.49494 24.1328 3.51101 24.1352 3.52616 24.1406C3.54131 24.146 3.55524 24.1543 3.56717 24.1651C3.57909 24.1759 3.58877 24.1889 3.59566 24.2034C3.60254 24.218 3.60649 24.2337 3.60729 24.2497C3.60808 24.2658 3.6057 24.2818 3.60029 24.297C3.59487 24.3121 3.58652 24.326 3.57572 24.3379C3.56492 24.3498 3.55188 24.3595 3.53734 24.3663C3.52279 24.3732 3.50704 24.3772 3.49097 24.378L3.3565 24.39C3.28829 24.3994 3.2196 24.4048 3.15076 24.4061Z" fill="#1F515B"/>
<path d="M7.73277 25.8012C7.68104 25.801 7.62938 25.7975 7.57813 25.7905C7.45776 25.7658 7.34263 25.7204 7.23792 25.6562C7.16512 25.6107 7.08437 25.5793 6.99991 25.5636C6.88556 25.5656 6.77325 25.5941 6.6718 25.6468C6.57984 25.688 6.48385 25.7194 6.38538 25.7408C6.08417 25.7972 5.84751 25.6952 5.61084 25.5972C5.55974 25.5757 5.50864 25.5542 5.45486 25.5341C5.23317 25.4529 4.99496 25.4271 4.761 25.4589C4.64161 25.4758 4.51999 25.4673 4.40411 25.434C4.28824 25.4007 4.18073 25.3433 4.08865 25.2656L4.00393 25.2119C3.735 25.0373 3.52522 24.9715 3.38403 25.0185C3.36325 25.027 3.34096 25.031 3.31853 25.0305C3.29611 25.03 3.27402 25.0249 3.25365 25.0156C3.23327 25.0062 3.21503 24.9928 3.20007 24.9761C3.1851 24.9594 3.17372 24.9398 3.16662 24.9186C3.15953 24.8973 3.15687 24.8749 3.15882 24.8526C3.16077 24.8302 3.16729 24.8086 3.17796 24.7889C3.18863 24.7692 3.20323 24.7519 3.22087 24.738C3.23851 24.7242 3.2588 24.7141 3.28049 24.7084C3.52388 24.6278 3.81837 24.7084 4.18143 24.9366L4.26884 24.993C4.46247 25.1206 4.51357 25.1555 4.73679 25.134C5.02141 25.0961 5.31098 25.1289 5.57991 25.2293L5.74531 25.2964C5.9497 25.3824 6.1272 25.4575 6.33294 25.4186C6.40917 25.4008 6.48349 25.3756 6.55482 25.3434C6.70511 25.2692 6.8713 25.2328 7.0389 25.2374C7.16654 25.257 7.28875 25.3027 7.39794 25.3716C7.47085 25.4156 7.55027 25.4478 7.63326 25.4669C7.84147 25.4866 8.05082 25.4436 8.23434 25.3434C8.27321 25.3244 8.31807 25.3215 8.35905 25.3355C8.40003 25.3495 8.43377 25.3791 8.45285 25.4179C8.47193 25.4567 8.47478 25.5015 8.46079 25.5424C8.44679 25.5834 8.41709 25.617 8.37822 25.6361C8.17886 25.7405 7.95785 25.7971 7.73277 25.8012Z" fill="#1F515B"/>
<path d="M5.08474 23.553C5.01727 23.5853 4.96309 23.6399 4.93145 23.7077C4.9298 23.7111 4.92722 23.714 4.92401 23.716C4.9208 23.718 4.91708 23.7191 4.9133 23.7191C4.90951 23.7191 4.90579 23.718 4.90258 23.716C4.89937 23.714 4.89679 23.7111 4.89514 23.7077C4.86388 23.6397 4.80958 23.5849 4.74185 23.553C4.73844 23.5514 4.73556 23.5488 4.73355 23.5456C4.73154 23.5424 4.73047 23.5387 4.73047 23.5349C4.73047 23.5311 4.73154 23.5274 4.73355 23.5242C4.73556 23.521 4.73844 23.5184 4.74185 23.5167C4.80977 23.4858 4.86421 23.4314 4.89514 23.3634C4.89679 23.36 4.89937 23.3571 4.90258 23.3551C4.90579 23.3531 4.90951 23.3521 4.9133 23.3521C4.91708 23.3521 4.9208 23.3531 4.92401 23.3551C4.92722 23.3571 4.9298 23.36 4.93145 23.3634C4.96277 23.4311 5.0171 23.4854 5.08474 23.5167C5.08815 23.5184 5.09103 23.521 5.09304 23.5242C5.09506 23.5274 5.09612 23.5311 5.09612 23.5349C5.09612 23.5387 5.09506 23.5424 5.09304 23.5456C5.09103 23.5488 5.08815 23.5514 5.08474 23.553Z" fill="#1F515B"/>
<path d="M4.88436 24.0568C4.77351 24.0125 4.67271 23.9464 4.58794 23.8625C4.50317 23.7785 4.43614 23.6784 4.39085 23.5681C4.38856 23.562 4.38443 23.5566 4.37902 23.5529C4.37362 23.5491 4.36719 23.5471 4.3606 23.5471C4.35401 23.5471 4.34758 23.5491 4.34217 23.5529C4.33676 23.5566 4.33264 23.562 4.33034 23.5681C4.28537 23.6795 4.21836 23.7806 4.13334 23.8655C4.04831 23.9504 3.94701 24.0173 3.8355 24.0622C3.82932 24.0645 3.82399 24.0686 3.82023 24.074C3.81647 24.0794 3.81445 24.0858 3.81445 24.0924C3.81445 24.099 3.81647 24.1054 3.82023 24.1108C3.82399 24.1162 3.82932 24.1203 3.8355 24.1226C3.94696 24.1672 4.04826 24.2339 4.13329 24.3185C4.21833 24.4032 4.28535 24.5041 4.33034 24.6153C4.33264 24.6215 4.33676 24.6268 4.34217 24.6305C4.34758 24.6343 4.35401 24.6363 4.3606 24.6363C4.36719 24.6363 4.37362 24.6343 4.37902 24.6305C4.38443 24.6268 4.38856 24.6215 4.39085 24.6153C4.43556 24.5042 4.50233 24.4032 4.58714 24.3186C4.67195 24.2339 4.77305 24.1672 4.88436 24.1226C4.89309 24.1226 4.90147 24.1191 4.90765 24.113C4.91383 24.1068 4.9173 24.0984 4.9173 24.0897C4.9173 24.081 4.91383 24.0726 4.90765 24.0664C4.90147 24.0603 4.89309 24.0568 4.88436 24.0568ZM4.53608 24.1051C4.46651 24.137 4.41069 24.1928 4.37875 24.2622C4.3771 24.2656 4.37452 24.2685 4.37131 24.2705C4.3681 24.2725 4.36439 24.2736 4.3606 24.2736C4.35681 24.2736 4.3531 24.2725 4.34989 24.2705C4.34667 24.2685 4.3441 24.2656 4.34244 24.2622C4.30918 24.1918 4.25133 24.136 4.17974 24.1051C4.17633 24.1035 4.17345 24.1009 4.17144 24.0977C4.16943 24.0945 4.16836 24.0908 4.16836 24.087C4.16836 24.0832 4.16943 24.0795 4.17144 24.0763C4.17345 24.0731 4.17633 24.0705 4.17974 24.0689C4.24931 24.037 4.30513 23.9813 4.33707 23.9118C4.33872 23.9084 4.3413 23.9055 4.34451 23.9035C4.34772 23.9015 4.35143 23.9005 4.35522 23.9005C4.35901 23.9005 4.36272 23.9015 4.36593 23.9035C4.36914 23.9055 4.37172 23.9084 4.37337 23.9118C4.40531 23.9813 4.46113 24.037 4.5307 24.0689C4.53442 24.07 4.53775 24.0721 4.54029 24.075C4.54284 24.0779 4.5445 24.0815 4.54506 24.0853C4.54563 24.0891 4.54508 24.093 4.54349 24.0965C4.5419 24.1001 4.53933 24.103 4.53608 24.1051Z" fill="#1F515B"/>
</svg>
