<svg width="80" height="36" viewBox="0 0 80 36" fill="none" xmlns="http://www.w3.org/2000/svg">
<path d="M15.0264 32.3718L16.71 27.4695H17.8711C17.7255 27.8596 17.3973 28.7451 16.8867 30.1257C16.5038 31.1642 16.1875 32.0131 15.9375 32.6687C15.3298 34.2088 14.9013 35.1499 14.6523 35.491C14.4055 35.8278 13.9784 35.9997 13.3867 35.9998C13.2725 36.0017 13.1582 35.9954 13.0449 35.9812C12.9457 35.9659 12.8469 35.9452 12.75 35.9197V35.0007C12.8801 35.0369 13.0123 35.0666 13.1455 35.0896C13.2177 35.101 13.2911 35.1073 13.3643 35.1082C13.5134 35.1194 13.6629 35.0855 13.792 35.0125C13.8825 34.9513 13.9605 34.8744 14.0225 34.7859C14.0415 34.7551 14.1114 34.6023 14.2314 34.324C14.3517 34.0452 14.4372 33.8394 14.4941 33.7107L12.1621 27.4695H13.3516L15.0264 32.3718ZM3.02246 27.3035C3.97813 27.3035 4.66609 27.5702 5.08594 28.1033C5.34083 28.415 5.47696 28.8024 5.47168 29.2H4.49414C4.47003 28.9759 4.37972 28.7627 4.23438 28.5867C3.98754 28.3233 3.56028 28.1883 2.96875 28.1882C2.64449 28.1668 2.32075 28.244 2.04395 28.4089C1.9453 28.4721 1.86487 28.5587 1.80957 28.6599C1.75436 28.761 1.72601 28.8737 1.72754 28.988C1.72965 29.1197 1.76922 29.2488 1.8418 29.3601C1.91434 29.4713 2.01697 29.5614 2.13867 29.6199C2.35948 29.7346 2.59656 29.818 2.8418 29.8679L3.54785 30.03C4.08691 30.1273 4.60874 30.3007 5.0957 30.5447C5.29948 30.679 5.46313 30.863 5.57031 31.0779C5.67755 31.293 5.72435 31.5321 5.70605 31.7703C5.70956 32.0329 5.65509 32.2935 5.5459 32.5339C5.43676 32.7742 5.27533 32.9888 5.07324 33.1638C4.65123 33.556 4.00002 33.7527 3.12012 33.7527C2.17907 33.7527 1.51258 33.5479 1.12012 33.1394C0.724122 32.7262 0.499001 32.1863 0.487305 31.6228L1.48047 31.6111C1.49217 31.8908 1.58594 32.1618 1.75 32.3923C2.01906 32.717 2.48758 32.8826 3.15527 32.8826C3.52038 32.8895 3.88162 32.8051 4.20312 32.6375C4.34555 32.5661 4.46377 32.4565 4.54395 32.322C4.62415 32.1874 4.66287 32.0329 4.65527 31.8777C4.65882 31.7559 4.62725 31.6351 4.56348 31.53C4.49972 31.425 4.4065 31.3393 4.29492 31.283C4.00174 31.1551 3.69465 31.0585 3.37988 30.9949L2.53418 30.7927C2.11436 30.7094 1.70992 30.5649 1.33496 30.364C1.12402 30.2521 0.948157 30.0868 0.827148 29.8855C0.706166 29.6842 0.64476 29.4543 0.648438 29.2214C0.638397 28.9588 0.690151 28.6972 0.799805 28.4568C0.909429 28.2164 1.07409 28.0035 1.28125 27.8337C1.77638 27.4594 2.39511 27.2709 3.02246 27.3035ZM76.7197 27.3035C77.6756 27.3035 78.3643 27.5702 78.7842 28.1033C79.039 28.415 79.1752 28.8025 79.1699 29.2H78.1758C78.1542 28.9758 78.0656 28.7622 77.9199 28.5867C77.673 28.3232 77.2454 28.1882 76.6377 28.1882C76.3136 28.1668 75.9906 28.2442 75.7139 28.4089C75.6152 28.4721 75.5338 28.5587 75.4785 28.6599C75.4234 28.7609 75.3959 28.8738 75.3975 28.988C75.3989 29.1198 75.4381 29.2487 75.5107 29.3601C75.5834 29.4716 75.6863 29.5619 75.8086 29.6199C76.0292 29.7345 76.2657 29.818 76.5107 29.8679L77.2168 30.03C77.76 30.1242 78.286 30.2957 78.7773 30.5388C78.9813 30.6732 79.1457 30.8569 79.2529 31.072C79.3601 31.2871 79.407 31.5262 79.3887 31.7644C79.3921 32.0269 79.3366 32.2868 79.2275 32.5271C79.1183 32.7676 78.9572 32.9829 78.7549 33.158C78.3329 33.55 77.6824 33.7468 76.8027 33.7468C75.8532 33.7468 75.1942 33.541 74.8018 33.1335C74.4061 32.7202 74.1809 32.1804 74.1689 31.6169L75.1689 31.6111C75.1791 31.8911 75.273 32.1624 75.4385 32.3923C75.7075 32.717 76.1761 32.8826 76.8438 32.8826C77.2089 32.8895 77.5701 32.8051 77.8916 32.6375C78.0339 32.5658 78.1523 32.4556 78.2324 32.321C78.3124 32.1866 78.351 32.0327 78.3438 31.8777C78.3473 31.7559 78.3157 31.6351 78.252 31.53C78.1882 31.425 78.095 31.3393 77.9834 31.283C77.6902 31.1551 77.3831 31.0585 77.0684 30.9949L76.2197 30.7927C75.801 30.7089 75.3976 30.5645 75.0234 30.364C74.8143 30.2508 74.6408 30.0847 74.5215 29.8835C74.4022 29.6823 74.3421 29.4534 74.3467 29.2214C74.3366 28.9588 74.3884 28.6972 74.498 28.4568C74.6077 28.2164 74.7723 28.0035 74.9795 27.8337C75.4745 27.4595 76.0925 27.271 76.7197 27.3035ZM26.9336 27.3035C27.8831 27.3035 28.5761 27.5702 28.9971 28.1033C29.2512 28.4154 29.3863 28.8026 29.3799 29.2H28.3896C28.3681 28.9758 28.2784 28.7622 28.1328 28.5867C27.8859 28.3235 27.4589 28.1893 26.8486 28.1892C26.525 28.1623 26.2003 28.2339 25.9209 28.3943C25.8224 28.4573 25.7418 28.5432 25.6865 28.6443C25.6312 28.7455 25.6029 28.8589 25.6045 28.9734C25.6059 29.1051 25.6452 29.2341 25.7178 29.3455C25.7904 29.4567 25.8935 29.5464 26.0156 29.6042C26.2354 29.7184 26.4709 29.8019 26.7148 29.8523L27.4238 30.0144C27.9621 30.1109 28.4832 30.2844 28.9688 30.5291C29.1731 30.6633 29.3375 30.8481 29.4453 31.0632C29.5529 31.2781 29.6005 31.5165 29.583 31.7546C29.5865 32.0172 29.532 32.2779 29.4229 32.5183C29.3137 32.7587 29.1524 32.9741 28.9502 33.1492C28.5229 33.5413 27.8737 33.737 26.9971 33.7371C26.0583 33.7371 25.3925 33.5331 25 33.1248C24.6043 32.7114 24.3792 32.1716 24.3672 31.6082L25.3799 31.6111C25.39 31.8911 25.483 32.1624 25.6484 32.3923C25.9174 32.7171 26.386 32.8825 27.0537 32.8826C27.4189 32.8892 27.7798 32.8047 28.1016 32.6375C28.244 32.5658 28.3622 32.4557 28.4424 32.321C28.5224 32.1865 28.5609 32.0328 28.5537 31.8777C28.5573 31.7554 28.5254 31.6343 28.4609 31.5291C28.3965 31.424 28.3028 31.3385 28.1904 31.283C27.8985 31.1546 27.5923 31.0579 27.2783 30.9949L26.4307 30.7927C26.0119 30.7089 25.6085 30.5644 25.2344 30.364C25.023 30.2522 24.8462 30.0868 24.7246 29.8855C24.6031 29.6842 24.5409 29.4545 24.5439 29.2214C24.5353 28.9576 24.5897 28.6954 24.7021 28.4548C24.8146 28.2144 24.9821 28.0017 25.1924 27.8337C25.6872 27.4589 26.3062 27.2703 26.9336 27.3035ZM48.5947 27.322C49.036 27.3278 49.4702 27.4329 49.8613 27.6306C50.2456 27.802 50.5738 28.0724 50.8105 28.4119C51.0265 28.7344 51.1691 29.0982 51.2285 29.4783C51.3048 29.9185 51.3364 30.3651 51.3232 30.8113H46.7715C46.7627 31.3376 46.9185 31.8543 47.2178 32.2937C47.3676 32.483 47.5642 32.6338 47.7891 32.7312C48.014 32.8286 48.2611 32.8694 48.5068 32.8513C48.7506 32.8609 48.9936 32.8193 49.2188 32.7283C49.444 32.6372 49.6462 32.4996 49.8105 32.325C49.9918 32.1185 50.1233 31.8755 50.1963 31.614H51.2441C51.2024 31.8764 51.1097 32.1287 50.9717 32.3582C50.8384 32.6057 50.6654 32.8312 50.459 33.0261C50.1345 33.3326 49.728 33.5454 49.2852 33.6394C49.0062 33.7025 48.7201 33.7324 48.4336 33.7283C48.0645 33.7344 47.6983 33.6638 47.3594 33.5222C47.0205 33.3806 46.7163 33.1711 46.4678 32.907C45.9298 32.3617 45.6612 31.5926 45.6611 30.6062C45.621 29.7481 45.9098 28.9058 46.4717 28.241C46.7313 27.9429 47.0571 27.7048 47.4248 27.5457C47.7924 27.3866 48.1923 27.3106 48.5947 27.322ZM37.9775 27.4832H38.9746V28.3132H37.9775V32.2625C37.9666 32.3461 37.9822 32.4313 38.0215 32.5066C38.0609 32.5819 38.123 32.6443 38.1992 32.6853C38.3291 32.7337 38.4685 32.7548 38.6074 32.7468H38.7695L38.9746 32.7283V33.5339C38.8518 33.5695 38.7261 33.5949 38.5986 33.6082C38.4579 33.6246 38.3156 33.6327 38.1738 33.6326C37.6866 33.6325 37.3508 33.5093 37.1768 33.2673C37.014 33.0208 36.9239 32.7369 36.9141 32.446V28.2986H36.0693V27.4832H36.9141V25.78H37.9775V27.4832ZM61.5146 27.3357C61.8614 27.3032 62.21 27.3778 62.5098 27.5496C62.8096 27.7214 63.0453 27.9818 63.1826 28.2917C63.3907 27.9883 63.6738 27.7393 64.0059 27.5681C64.3358 27.4092 64.7008 27.3296 65.0693 27.3357C65.9078 27.3358 66.4806 27.6417 66.7812 28.2175C66.9634 28.6183 67.048 29.0545 67.0283 29.4919V33.5183H65.9365V29.3083C65.9542 29.1558 65.9347 29.0012 65.8799 28.8572C65.825 28.7132 65.7359 28.5832 65.6201 28.4783C65.3985 28.3237 65.1295 28.2441 64.8564 28.2517C64.4616 28.2461 64.0796 28.3901 63.793 28.6531C63.4957 28.9197 63.3467 29.3672 63.3467 29.9919V33.5085H62.2773V29.5564C62.297 29.25 62.2446 28.9432 62.125 28.6589C62.0334 28.5137 61.901 28.3969 61.7432 28.322C61.585 28.2471 61.4073 28.217 61.2324 28.2361C60.8253 28.2403 60.4365 28.4001 60.1504 28.6804C59.8339 28.9868 59.6631 29.5167 59.6631 30.2947V33.5027H58.6152L58.6211 27.4705H59.6602V28.3279C59.8542 28.0827 60.0818 27.864 60.3369 27.6785C60.6839 27.4502 61.0952 27.3308 61.5146 27.3357ZM48.5127 28.2126C48.2865 28.2088 48.062 28.2524 47.8545 28.3396C47.6471 28.4268 47.461 28.556 47.3096 28.7185C46.9781 29.0703 46.7944 29.5295 46.7939 30.0056H50.2373C50.2147 29.6372 50.1141 29.2766 49.9404 28.948C49.7993 28.7069 49.5897 28.5098 49.3369 28.3796C49.0841 28.2494 48.7982 28.1912 48.5127 28.2126ZM8.27441 3.9812C11.123 3.9812 12.9814 4.53287 14.124 5.67261C15.0513 6.59169 15.4785 7.94896 15.4785 9.98608V20.2439C15.4785 20.9332 15.1937 21.2126 14.2666 21.2126H12.5889C11.7691 21.2126 11.4838 21.0377 11.2686 20.4158L11.0566 19.8025L10.9844 19.7966C10.2722 20.8322 8.55961 21.5222 6.3125 21.5222H5.77734C2.21025 21.5222 0.000976562 19.6832 0.000976562 16.2058V15.8318C0.00115161 11.9657 2.24517 10.7215 7.02734 10.7214H7.27441C8.10883 10.7208 8.94255 10.7677 9.77148 10.8601V10.1335C9.77148 9.44419 9.66391 8.96009 9.16699 8.61694C8.73656 8.33821 8.2173 8.23706 7.02734 8.23706C5.62831 8.27162 4.23852 8.46788 2.8877 8.82202C1.99841 9.03033 1.78341 8.75484 1.67578 8.16675L1.39062 6.32788C1.35444 6.09853 1.32966 5.86721 1.31738 5.6355C1.31747 5.18843 1.46383 4.94632 2.17578 4.73804C4.16475 4.22395 6.2158 3.96931 8.27441 3.9812ZM53.3662 -0.000244141C54.3158 -0.000244141 54.5781 0.346054 54.5781 1.00171V4.30444H57.5381C58.2185 4.30446 58.4658 4.44244 58.4658 5.3064V7.61987C58.4657 8.48038 58.2184 8.62084 57.5381 8.62085H54.5781V15.1443C54.5781 15.7324 54.6134 16.0785 54.8633 16.3542C55.1133 16.63 55.4711 16.697 56.2559 16.697H57.8389C58.7661 16.6971 58.9785 16.9766 58.9785 17.9753L58.9561 19.9451C58.9561 20.9439 58.7438 21.2224 57.8164 21.2224H54.9678C52.1192 21.2224 50.7959 20.8765 49.9033 19.9451C49.1534 19.1516 48.8692 17.975 48.8691 15.7664V8.62085H46.9375C46.2606 8.62075 46.046 8.41287 46.0459 7.75757V5.99585C46.0459 5.13189 46.2226 4.99358 46.9727 4.82202L48.8721 4.37183V1.00171C48.8721 0.346083 49.1219 -0.000213454 50.084 -0.000244141H53.3662ZM78.8584 4.30054C79.5357 4.30054 79.8936 4.50896 79.8936 5.30249V5.95776C79.9555 6.84079 79.6754 7.71464 79.1084 8.40894L72.9746 16.8318H79.0742C79.7513 16.8318 80.001 16.9729 80.001 17.8337V20.2166C80.001 21.0773 79.7513 21.2185 79.0742 21.2185H66.8027C66.0526 21.2185 65.6982 20.9764 65.6982 20.2166V19.4236C65.6376 18.5407 65.9174 17.6673 66.4834 16.9724L72.4746 8.69995L66.8027 8.6853C66.1255 8.6853 65.8751 8.54699 65.875 7.68335V5.30249C65.875 4.4385 66.1254 4.30054 66.8027 4.30054H78.8584ZM33.5615 3.9812C35.6662 3.98121 37.1634 4.46185 38.0908 5.39624C39.0181 6.33064 39.4101 7.63903 39.4102 9.9519V20.2068C39.4102 20.8624 39.1604 21.2087 38.1982 21.2087H34.916C33.9666 21.2087 33.7041 20.8624 33.7041 20.2068V10.4363C33.7041 9.64295 33.5963 9.15892 33.3115 8.84644C33.0267 8.53393 32.4565 8.39917 31.7285 8.39917H31.5166C30.8015 8.39919 30.2321 8.53711 29.9346 8.84644C29.6371 9.15586 29.542 9.60611 29.542 10.4363V20.2068C29.542 20.8624 29.2913 21.2087 28.3291 21.2087H25.0723C24.123 21.2087 23.8604 20.8624 23.8604 20.2068V5.25854C23.8604 4.56627 24.1452 4.29084 25.0723 4.29077H26.75C27.5697 4.29077 27.8551 4.4282 28.0703 5.08374L28.2822 5.73999H28.3896C29.5322 4.56659 31.1717 3.98124 33.2764 3.9812H33.5615ZM7.67285 14.3064C6.0336 14.3064 5.35645 14.5826 5.35645 15.8601V15.9978C5.35649 17.2753 6.10652 17.5847 7.35352 17.5847H7.60352C8.20771 17.6147 8.80191 17.4266 9.27148 17.0574C9.66381 16.7143 9.77145 16.298 9.77148 15.3669L9.77832 14.4109C9.21073 14.3378 8.63801 14.3026 8.06543 14.3064H7.67285Z" fill="#1F515B"/>
</svg>
